<?xml version="1.0" encoding="utf-8"?>
<svg width="60.83676px" height="60.85559px" viewBox="0 0 60.83676 60.85559" version="1.1" xmlns:xlink="http://www.w3.org/1999/xlink" xmlns="http://www.w3.org/2000/svg">
  <defs>
    <path d="M-1.00466e-15 30.4268C-1.00466e-15 47.2313 13.618 60.8556 30.4174 60.8556L30.4174 60.8556C47.2187 60.8556 60.8368 47.2313 60.8368 30.4268L60.8368 30.4268C60.8368 13.6243 47.2187 0 30.4174 0L30.4174 0C13.618 0 -1.00466e-15 13.6243 -1.00466e-15 30.4268" id="path_1" />
    <path d="M-1.00466e-15 30.4268C-1.00466e-15 47.2313 13.618 60.8556 30.4174 60.8556L30.4174 60.8556C47.2187 60.8556 60.8368 47.2313 60.8368 30.4268L60.8368 30.4268C60.8368 13.6243 47.2187 0 30.4174 0L30.4174 0C13.618 0 -1.00466e-15 13.6243 -1.00466e-15 30.4268L-1.00466e-15 30.4268Z" id="path_2" />
    <clipPath id="mask_1">
      <use xlink:href="#path_1" />
    </clipPath>
    <clipPath id="mask_2">
      <use xlink:href="#path_2" />
    </clipPath>
  </defs>
  <g id="Group-29">
    <g id="Group-13">
      <path d="M-1.00466e-15 30.4268C-1.00466e-15 47.2313 13.618 60.8556 30.4174 60.8556L30.4174 60.8556C47.2187 60.8556 60.8368 47.2313 60.8368 30.4268L60.8368 30.4268C60.8368 13.6243 47.2187 0 30.4174 0L30.4174 0C13.618 0 -1.00466e-15 13.6243 -1.00466e-15 30.4268" id="Clip-12" fill="none" fill-rule="evenodd" stroke="none" />
      <g clip-path="url(#mask_1)">
        <path d="M30.7383 37.8474C30.4508 37.8474 30.2175 38.0807 30.2175 38.3684L30.2175 48.6072C30.2175 48.8949 30.4508 49.1282 30.7383 49.1282C31.0259 49.1282 31.2592 48.8949 31.2592 48.6072L31.2592 38.3684C31.2592 38.0807 31.0259 37.8474 30.7383 37.8474" id="Fill-11" fill="#4EBFEC" fill-rule="evenodd" stroke="none" />
      </g>
    </g>
    <g id="Group-16">
      <path d="M-1.00466e-15 30.4268C-1.00466e-15 47.2313 13.618 60.8556 30.4174 60.8556L30.4174 60.8556C47.2187 60.8556 60.8368 47.2313 60.8368 30.4268L60.8368 30.4268C60.8368 13.6243 47.2187 0 30.4174 0L30.4174 0C13.618 0 -1.00466e-15 13.6243 -1.00466e-15 30.4268" id="Clip-15" fill="none" fill-rule="evenodd" stroke="none" />
      <g clip-path="url(#mask_1)">
        <path d="M33.4991 37.8474C33.2116 37.8474 32.9783 38.0807 32.9783 38.3684L32.9783 44.4815C32.9783 44.7692 33.2116 45.0025 33.4991 45.0025C33.7867 45.0025 34.02 44.7692 34.02 44.4815L34.02 38.3684C34.02 38.0807 33.7867 37.8474 33.4991 37.8474" id="Fill-14" fill="#4EBFEC" fill-rule="evenodd" stroke="none" />
      </g>
    </g>
    <g id="Group-19">
      <path d="M-1.00466e-15 30.4268C-1.00466e-15 47.2313 13.618 60.8556 30.4174 60.8556L30.4174 60.8556C47.2187 60.8556 60.8368 47.2313 60.8368 30.4268L60.8368 30.4268C60.8368 13.6243 47.2187 0 30.4174 0L30.4174 0C13.618 0 -1.00466e-15 13.6243 -1.00466e-15 30.4268" id="Clip-18" fill="none" fill-rule="evenodd" stroke="none" />
      <g clip-path="url(#mask_1)">
        <path d="M27.7239 37.8474C27.4364 37.8474 27.2031 38.0807 27.2031 38.3684L27.2031 44.4815C27.2031 44.7692 27.4364 45.0025 27.7239 45.0025C28.0115 45.0025 28.2448 44.7692 28.2448 44.4815L28.2448 38.3684C28.2448 38.0807 28.0115 37.8474 27.7239 37.8474" id="Fill-17" fill="#4EBFEC" fill-rule="evenodd" stroke="none" />
      </g>
    </g>
    <g id="Group-22">
      <path d="M-1.00466e-15 30.4268C-1.00466e-15 47.2313 13.618 60.8556 30.4174 60.8556L30.4174 60.8556C47.2187 60.8556 60.8368 47.2313 60.8368 30.4268L60.8368 30.4268C60.8368 13.6243 47.2187 0 30.4174 0L30.4174 0C13.618 0 -1.00466e-15 13.6243 -1.00466e-15 30.4268" id="Clip-21" fill="none" fill-rule="evenodd" stroke="none" />
      <g clip-path="url(#mask_1)">
        <path d="M27.7772 12.9508C28.3765 13.0795 28.9476 13.6106 29.1064 14.025C29.1849 14.2322 29.3819 14.3589 29.5931 14.3589C29.6554 14.3589 29.7178 14.3488 29.7781 14.3247C30.0476 14.2221 30.1823 13.9204 30.0797 13.6508C29.8223 12.981 29.0059 12.1502 27.9984 11.9309C27.7169 11.8706 27.4394 12.0496 27.377 12.3312C27.3167 12.6129 27.4957 12.8904 27.7772 12.9508" id="Fill-20" fill="#4EBFEC" fill-rule="evenodd" stroke="none" />
      </g>
    </g>
    <g id="Group-25">
      <path d="M-1.00466e-15 30.4268C-1.00466e-15 47.2313 13.618 60.8556 30.4174 60.8556L30.4174 60.8556C47.2187 60.8556 60.8368 47.2313 60.8368 30.4268L60.8368 30.4268C60.8368 13.6243 47.2187 0 30.4174 0L30.4174 0C13.618 0 -1.00466e-15 13.6243 -1.00466e-15 30.4268" id="Clip-24" fill="none" fill-rule="evenodd" stroke="none" />
      <g clip-path="url(#mask_1)">
        <path d="M30.9909 14.3247C31.0532 14.3488 31.1156 14.3589 31.1779 14.3589C31.387 14.3589 31.5841 14.2322 31.6646 14.025C31.8234 13.6106 32.3945 13.0795 32.9918 12.9508C33.2733 12.8904 33.4523 12.6129 33.3919 12.3312C33.3316 12.0496 33.0541 11.8706 32.7726 11.9309C31.7651 12.1502 30.9487 12.981 30.6913 13.6508C30.5867 13.9204 30.7214 14.2221 30.9909 14.3247" id="Fill-23" fill="#4EBFEC" fill-rule="evenodd" stroke="none" />
      </g>
    </g>
    <g id="Group-28">
      <path d="M-1.00466e-15 30.4268C-1.00466e-15 47.2313 13.618 60.8556 30.4174 60.8556L30.4174 60.8556C47.2187 60.8556 60.8368 47.2313 60.8368 30.4268L60.8368 30.4268C60.8368 13.6243 47.2187 0 30.4174 0L30.4174 0C13.618 0 -1.00466e-15 13.6243 -1.00466e-15 30.4268L-1.00466e-15 30.4268Z" id="Clip-27" fill="none" fill-rule="evenodd" stroke="none" />
      <g clip-path="url(#mask_2)">
        <path d="M39.944 35.0198C39.6866 35.5508 39.2341 35.8666 38.7334 35.8666C38.6228 35.8666 38.5142 35.8505 38.4116 35.8204C34.4541 34.6114 31.9264 31.6645 30.939 30.3127L30.939 25.6902L33.8327 22.8579C33.9433 22.7493 34.0841 22.6909 34.2289 22.6909C34.3958 22.6909 34.5527 22.7694 34.6612 22.9082C40.8911 30.8257 40.4306 34.016 39.944 35.0198L39.944 35.0198ZM30.4182 34.1528C29.8189 34.1528 29.2197 33.843 28.6787 33.2597C29.4167 32.5596 29.9979 31.8878 30.4182 31.3507C30.8385 31.8878 31.4196 32.5596 32.1576 33.2597C31.6167 33.845 31.0194 34.1528 30.4182 34.1528L30.4182 34.1528ZM22.4247 35.8204C22.3222 35.8505 22.2136 35.8666 22.103 35.8666C21.6022 35.8666 21.1498 35.5508 20.8924 35.0198C20.4057 34.016 19.9452 30.8257 26.1751 22.9082C26.2837 22.7694 26.4426 22.6909 26.6095 22.6909C26.7543 22.6909 26.893 22.7493 27.0036 22.8579L29.8973 25.6902L29.8973 30.3127C28.91 31.6645 26.3842 34.6114 22.4247 35.8204L22.4247 35.8204ZM28.4294 18.8811C28.9804 18.4767 29.656 18.2374 30.384 18.2374C31.114 18.2374 31.7896 18.4767 32.3406 18.8811C33.1933 19.5067 33.7503 20.5285 33.7503 21.6811C33.7503 21.6952 33.7523 21.7073 33.7543 21.7214C33.513 21.7978 33.2918 21.9286 33.1048 22.1116L30.4182 24.7407L27.7336 22.1116C27.5285 21.9125 27.2831 21.7737 27.0177 21.7033C27.0177 21.6952 27.0197 21.6892 27.0197 21.6811C27.0197 20.5285 27.5767 19.5067 28.4294 18.8811L28.4294 18.8811ZM28.0191 16.8695C28.0191 16.3123 28.4434 15.8517 28.9844 15.7933C29.1352 16.1413 29.2116 16.5014 29.2116 16.8695C29.2116 17.0385 29.1935 17.2054 29.1613 17.3704C28.8919 17.4508 28.6345 17.5554 28.3891 17.6822C28.1619 17.483 28.0191 17.1934 28.0191 16.8695L28.0191 16.8695ZM31.2266 15.7873C31.1019 16.1373 31.0355 16.4994 31.0355 16.8695C31.0355 16.9962 31.0476 17.123 31.0617 17.2477C30.8405 17.2115 30.6152 17.1934 30.384 17.1934C30.1547 17.1934 29.9295 17.2115 29.7083 17.2477C29.7224 17.123 29.7324 16.9962 29.7324 16.8695C29.7324 16.4994 29.6681 16.1373 29.5434 15.7873L31.2266 15.7873ZM31.7856 15.7933C32.3266 15.8517 32.7509 16.3123 32.7509 16.8695C32.7509 17.1934 32.6061 17.483 32.3808 17.6822C32.1355 17.5554 31.8781 17.4508 31.6087 17.3704C31.5765 17.2054 31.5584 17.0385 31.5584 16.8695C31.5584 16.5014 31.6348 16.1413 31.7856 15.7933L31.7856 15.7933ZM36.4087 23.4714L38.0738 24.6985L39.1899 26.1408C39.2924 26.2735 39.4473 26.3439 39.6021 26.3439C39.7127 26.3439 39.8253 26.3077 39.9198 26.2353C40.1491 26.0583 40.1913 25.7304 40.0144 25.5031L38.104 23.0309C37.9471 22.8277 37.6354 22.6085 37.3921 22.528L34.8 21.6751C34.798 21.6731 34.794 21.6731 34.792 21.6731C34.7899 20.955 34.621 20.2791 34.3254 19.6776C34.3435 19.6595 34.3616 19.6434 34.3777 19.6233L35.2605 18.4365C35.5259 18.0825 35.7049 17.5474 35.7069 17.1069L35.721 15.0571C35.727 15.0229 35.7532 14.9545 35.7713 14.9263L37.8888 12.597C38.0818 12.3837 38.0658 12.0559 37.8526 11.8607C37.6394 11.6676 37.3096 11.6837 37.1166 11.8969L34.993 14.2344C34.8181 14.4255 34.6793 14.7815 34.6773 15.039L34.6633 17.1008C34.6633 17.3181 34.5567 17.6379 34.426 17.8129L33.7221 18.7563C33.5774 18.5854 33.4205 18.4264 33.2536 18.2796C33.5874 17.9034 33.7925 17.4106 33.7925 16.8695C33.7925 15.9502 33.2073 15.1697 32.3889 14.872C32.2059 14.8056 32.0128 14.7654 31.8097 14.7513C31.7635 14.7493 31.7172 14.7453 31.669 14.7453L29.101 14.7453C29.0528 14.7453 29.0065 14.7493 28.9603 14.7513C28.7571 14.7654 28.5641 14.8077 28.3811 14.872C27.5627 15.1697 26.9755 15.9502 26.9755 16.8695C26.9755 17.4106 27.1806 17.9034 27.5164 18.2796C27.3475 18.4264 27.1926 18.5854 27.0479 18.7563L26.344 17.8129C26.2133 17.6379 26.1067 17.3181 26.1047 17.0988L26.0927 15.041C26.0907 14.7815 25.9519 14.4275 25.7769 14.2324L23.6534 11.8969C23.4604 11.6837 23.1306 11.6676 22.9174 11.8607C22.7042 12.0559 22.6882 12.3837 22.8812 12.597L24.9967 14.9263C25.0168 14.9545 25.043 15.0229 25.049 15.0571L25.0631 17.1049C25.0651 17.5474 25.244 18.0825 25.5095 18.4365L26.3923 19.6233C26.4084 19.6434 26.4265 19.6595 26.4446 19.6776C26.149 20.2771 25.98 20.953 25.978 21.6691C25.97 21.6711 25.964 21.6711 25.9559 21.6751L23.3638 22.528C23.1225 22.6085 22.8088 22.8297 22.654 23.0309L20.7416 25.5031C20.5666 25.7304 20.6088 26.0583 20.8361 26.2353C20.9306 26.3077 21.0432 26.3439 21.1538 26.3439C21.3107 26.3439 21.4635 26.2735 21.5681 26.1408L22.6821 24.6985L24.5261 23.3407C19.2977 30.2926 19.1268 33.7706 19.9553 35.4744C20.3917 36.3735 21.194 36.9106 22.103 36.9106C22.3161 36.9106 22.5273 36.8784 22.7284 36.8181C24.8398 36.1724 26.5672 35.0741 27.9025 33.9536C28.6465 34.7663 29.5133 35.1948 30.4182 35.1948C31.3231 35.1948 32.1898 34.7663 32.9359 33.9536C34.2711 35.0741 35.9965 36.1724 38.108 36.8181C38.3091 36.8784 38.5202 36.9106 38.7334 36.9106C39.6423 36.9106 40.4467 36.3735 40.8811 35.4744C41.7035 33.7806 41.5406 30.3369 36.4087 23.4714L36.4087 23.4714Z" id="Fill-26" fill="#4EBFEC" fill-rule="evenodd" stroke="none" />
      </g>
    </g>
  </g>
</svg>