<?xml version="1.0" encoding="utf-8"?>
<svg width="61.637238px" height="61.65631px" viewBox="0 0 61.637238 61.65631" version="1.1" xmlns:xlink="http://www.w3.org/1999/xlink" xmlns="http://www.w3.org/2000/svg">
  <defs>
    <path d="M-1.01788e-15 30.8271C-1.01788e-15 47.8548 13.7972 61.6563 30.8176 61.6563L30.8176 61.6563C47.84 61.6563 61.6372 47.8548 61.6372 30.8271L61.6372 30.8271C61.6372 13.8035 47.84 0 30.8176 0L30.8176 0C13.7972 0 -1.01788e-15 13.8035 -1.01788e-15 30.8271L-1.01788e-15 30.8271Z" id="path_1" />
    <clipPath id="mask_1">
      <use xlink:href="#path_1" />
    </clipPath>
  </defs>
  <g id="Group-3">
    <path d="M-1.01788e-15 30.8271C-1.01788e-15 47.8548 13.7972 61.6563 30.8176 61.6563L30.8176 61.6563C47.84 61.6563 61.6372 47.8548 61.6372 30.8271L61.6372 30.8271C61.6372 13.8035 47.84 0 30.8176 0L30.8176 0C13.7972 0 -1.01788e-15 13.8035 -1.01788e-15 30.8271L-1.01788e-15 30.8271Z" id="Clip-2" fill="none" fill-rule="evenodd" stroke="none" />
    <g clip-path="url(#mask_1)">
      <path d="M31.3467 28.9026L30.2913 28.9026L13.5868 28.9026C13.9433 22.0019 21.2535 16.4483 30.2913 16.2384C30.4666 16.2343 30.6418 16.2322 30.819 16.2322C30.9963 16.2322 31.1715 16.2343 31.3467 16.2384C40.3825 16.4483 47.6947 22.0019 48.0493 28.9026L31.3467 28.9026ZM31.3467 15.1806L31.3467 13.1018C31.3467 12.8104 31.1104 12.574 30.819 12.574C30.5277 12.574 30.2913 12.8104 30.2913 13.1018L30.2913 15.1806C20.4426 15.4007 12.5171 21.7084 12.5171 29.4305L12.5171 29.9583L30.2913 29.9583L30.2913 45.6246C30.2913 46.2319 29.7983 46.7251 29.1912 46.7251C28.586 46.7251 28.093 46.2319 28.093 45.6246C28.093 45.3332 27.8567 45.0968 27.5653 45.0968C27.274 45.0968 27.0376 45.3332 27.0376 45.6246C27.0376 46.8148 28.0034 47.7808 29.1912 47.7808C30.381 47.7808 31.3467 46.8148 31.3467 45.6246L31.3467 29.9583L49.1209 29.9583L49.1209 29.4305C49.1209 21.7084 41.1955 15.4007 31.3467 15.1806L31.3467 15.1806Z" id="Fill-1" fill="#4EBFEC" fill-rule="evenodd" stroke="none" />
    </g>
  </g>
</svg>