<?xml version="1.0" encoding="utf-8"?>
<svg width="60.83676px" height="60.855377px" viewBox="0 0 60.83676 60.855377" version="1.1" xmlns:xlink="http://www.w3.org/1999/xlink" xmlns="http://www.w3.org/2000/svg">
  <defs>
    <path d="M0 30.4267C0 47.2312 13.618 60.8554 30.4174 60.8554L30.4174 60.8554C47.2187 60.8554 60.8368 47.2312 60.8368 30.4267L60.8368 30.4267C60.8368 13.6242 47.2187 0 30.4174 0L30.4174 0C13.618 0 0 13.6242 0 30.4267L0 30.4267Z" id="path_1" />
    <clipPath id="mask_1">
      <use xlink:href="#path_1" />
    </clipPath>
  </defs>
  <g id="Group-8">
    <path d="M0 30.4267C0 47.2312 13.618 60.8554 30.4174 60.8554L30.4174 60.8554C47.2187 60.8554 60.8368 47.2312 60.8368 30.4267L60.8368 30.4267C60.8368 13.6242 47.2187 0 30.4174 0L30.4174 0C13.618 0 0 13.6242 0 30.4267L0 30.4267Z" id="Clip-7" fill="none" fill-rule="evenodd" stroke="none" />
    <g clip-path="url(#mask_1)">
      <path d="M41.8566 30.4271L45.3355 27.1784C45.5466 26.9813 45.5567 26.6514 45.3616 26.4402C45.1646 26.231 44.8348 26.2189 44.6236 26.4161L40.8873 29.9061L31.6772 29.9061L38.1906 23.3907L43.2984 23.2157C43.588 23.2056 43.8112 22.9642 43.8032 22.6766C43.7931 22.3889 43.5498 22.1616 43.2642 22.1737L38.5064 22.3366L38.6692 17.5773C38.6793 17.2897 38.4541 17.0483 38.1665 17.0382C37.8769 17.0302 37.6376 17.2555 37.6276 17.5431L37.4526 22.6545L30.9392 29.1679L30.9392 19.955L34.4282 16.2175C34.6253 16.0063 34.6132 15.6764 34.404 15.4793C34.1929 15.2841 33.8631 15.2942 33.666 15.5054L30.4184 18.9854L27.1707 15.5054C26.9737 15.2942 26.6439 15.2841 26.4327 15.4793C26.2236 15.6764 26.2115 16.0063 26.4086 16.2175L29.8975 19.955L29.8975 29.1679L23.3841 22.6545L23.2092 17.5431C23.1991 17.2555 22.9578 17.0302 22.6703 17.0382C22.3827 17.0483 22.1575 17.2897 22.1675 17.5773L22.3304 22.3366L17.5725 22.1737C17.283 22.1657 17.0437 22.3889 17.0336 22.6766C17.0256 22.9642 17.2508 23.2056 17.5384 23.2157L22.6481 23.3907L29.1595 29.9061L19.9495 29.9061L16.2131 26.4161C16.002 26.2189 15.6722 26.231 15.4751 26.4402C15.2801 26.6514 15.2901 26.9813 15.5013 27.1784L18.9802 30.4271L15.5013 33.6757C15.2901 33.8729 15.2801 34.2028 15.4751 34.414C15.5777 34.5226 15.7185 34.5789 15.8572 34.5789C15.9839 34.5789 16.1126 34.5327 16.2131 34.4381L19.9495 30.9481L29.1595 30.9481L22.6481 37.4635L17.5384 37.6385C17.2508 37.6485 17.0256 37.8899 17.0336 38.1776C17.0437 38.4592 17.2749 38.6805 17.5544 38.6805C17.5605 38.6805 17.5665 38.6805 17.5725 38.6805L22.3304 38.5175L22.1675 43.2769C22.1575 43.5645 22.3827 43.8059 22.6703 43.816C22.6763 43.816 22.6823 43.816 22.6884 43.816C22.9679 43.816 23.1991 43.5927 23.2092 43.3111L23.3841 38.1997L29.8975 31.6863L29.8975 40.8992L26.4086 44.6367C26.2115 44.8479 26.2236 45.1778 26.4327 45.3749C26.5333 45.4674 26.662 45.5137 26.7886 45.5137C26.9274 45.5137 27.0682 45.4594 27.1707 45.3488L30.4184 41.8688L33.666 45.3488C33.7686 45.4594 33.9094 45.5137 34.0481 45.5137C34.1748 45.5137 34.3035 45.4674 34.404 45.3749C34.6132 45.1778 34.6253 44.8479 34.4282 44.6367L30.9392 40.8992L30.9392 31.6863L37.4526 38.1997L37.6276 43.3111C37.6376 43.5947 37.8689 43.816 38.1484 43.816C38.1544 43.816 38.1605 43.816 38.1665 43.816C38.4541 43.8059 38.6793 43.5645 38.6692 43.2769L38.5064 38.5175L43.2642 38.6805C43.2703 38.6805 43.2763 38.6805 43.2823 38.6805C43.5618 38.6805 43.7931 38.4592 43.8032 38.1776C43.8112 37.8899 43.588 37.6485 43.2984 37.6385L38.1886 37.4635L31.6772 30.9481L40.8873 30.9481L44.6236 34.4381C44.7242 34.5327 44.8529 34.5789 44.9795 34.5789C45.1203 34.5789 45.2591 34.5226 45.3616 34.414C45.5567 34.2028 45.5466 33.8729 45.3355 33.6757L41.8566 30.4271Z" id="Fill-6" fill="#4EBFEC" fill-rule="evenodd" stroke="none" />
    </g>
  </g>
</svg>