<?xml version="1.0" encoding="utf-8"?>
<svg width="115.97101px" height="303.04688px" viewBox="0 0 115.97101 303.04688" version="1.1" xmlns:xlink="http://www.w3.org/1999/xlink" xmlns="http://www.w3.org/2000/svg">
  <g id="Group-23" transform="translate(0.35998535 0.36010742)">
    <path d="M86.3585 282.91L88.1014 287.534L65.2583 292.556L47.658 289.394L47.7461 281.511C23.4937 282.35 5.15488 286.235 5.15488 290.901C5.15488 296.18 28.6272 300.459 57.5815 300.459C86.5361 300.459 110.008 296.18 110.008 290.901C110.008 287.56 100.603 284.619 86.3585 282.91Z" id="Stroke-1" fill="none" fill-rule="evenodd" stroke="#4EBFEC" stroke-width="0.72" />
    <path d="M5.15486 290.966L5.15486 292.768C5.15486 298.047 28.6272 302.327 57.5815 302.327C86.5361 302.327 110.008 298.047 110.008 292.768L110.008 290.966" id="Stroke-3" fill="none" fill-rule="evenodd" stroke="#4EBFEC" stroke-width="0.72" />
    <path d="M36.174 26.6578L98.5868 0L79.6133 20.0863L15.9523 45.6283L36.174 26.6578Z" id="Stroke-5" fill="none" fill-rule="evenodd" stroke="#4EBFEC" stroke-width="0.72" />
    <path d="M98.5868 1.87854e-05L99.5854 1.48783L80.6118 21.5743L16.9508 47.1161L15.9523 45.6283" id="Stroke-7" fill="none" fill-rule="evenodd" stroke="#4EBFEC" stroke-width="0.72" />
    <path d="M59.3916 179.106L59.3916 30.0882L54.8979 31.8912L54.8979 179.11C55.8021 179.106 56.711 179.103 57.6256 179.103C58.2166 179.103 58.8047 179.105 59.3916 179.106Z" id="Stroke-9" fill="none" fill-rule="evenodd" stroke="#4EBFEC" stroke-width="0.72" />
    <path d="M115.251 189.314L115.251 184.85C115.251 181.735 90.3998 179.199 59.3916 179.106L59.3916 30.0882L54.8979 31.8913L54.8979 179.11C24.3389 179.252 0 181.767 0 184.85L0 189.314" id="Stroke-11" fill="none" fill-rule="evenodd" stroke="#4EBFEC" stroke-width="0.72" />
    <path d="M79.6133 20.0864L80.6119 21.5742" id="Stroke-13" fill="none" fill-rule="evenodd" stroke="#4EBFEC" stroke-width="0.72" />
    <path d="M57.0199 188.218L57.3943 206.073L88.1015 287.534L65.2583 292.556L65.2583 274.887L29.4958 185.801L57.0199 188.218Z" id="Stroke-15" fill="none" fill-rule="evenodd" stroke="#4EBFEC" stroke-width="0.72" />
    <path d="M65.2584 292.556L47.6581 289.394L47.8453 272.656L11.8954 187.103L29.4959 185.801" id="Stroke-17" fill="none" fill-rule="evenodd" stroke="#4EBFEC" stroke-width="0.72" />
    <path d="M47.8452 272.655L65.2583 274.887" id="Stroke-19" fill="none" fill-rule="evenodd" stroke="#4EBFEC" stroke-width="0.72" />
    <path d="M115.251 189.426C115.251 186.294 89.4512 183.755 57.6254 183.755C25.7998 183.755 0 186.294 0 189.426C0 190.866 5.45972 192.181 14.4498 193.181L11.8955 187.102L29.4958 185.801L57.0198 188.218L57.1641 195.096C57.3181 195.096 57.4713 195.097 57.6254 195.097C89.4512 195.097 115.251 192.558 115.251 189.426Z" id="Stroke-21" fill="none" fill-rule="evenodd" stroke="#4EBFEC" stroke-width="0.72" />
  </g>
</svg>