<?xml version="1.0" encoding="utf-8"?>
<svg width="1009.10004px" height="555.1001px" viewBox="0 0 1009.10004 555.1001" version="1.1" xmlns:xlink="http://www.w3.org/1999/xlink" xmlns="http://www.w3.org/2000/svg">
  <g id="Group-44" transform="translate(1.050003 1.0500488)">
    <path d="M1007 553L839.166 385L671.334 553L671.334 553L503.5 385L335.666 553L335.666 553L167.833 385L0 553" id="Stroke-1" fill="none" fill-rule="evenodd" stroke="#F3F1DD" stroke-width="2.1" stroke-dasharray="9,1 13,3" />
    <path d="M0 340.55L1007 340.55L0 340.55Z" id="Fill-3" fill="#4EBFEC" fill-rule="evenodd" stroke="none" />
    <path d="M1007 340.55L0 340.55" id="Stroke-4" fill="none" fill-rule="evenodd" stroke="#F3F1DD" stroke-width="2.1" />
    <path d="M0 332.15L1007 332.15L0 332.15Z" id="Fill-6" fill="#4EBFEC" fill-rule="evenodd" stroke="none" />
    <path d="M0 332.15L1007 332.15" id="Stroke-7" fill="none" fill-rule="evenodd" stroke="#F3F1DD" stroke-width="2.1" />
    <path d="M499.298 386.4L507.702 386.4L507.702 158.2L499.298 158.2L499.298 386.4Z" id="Fill-9" fill="#4EBFEC" fill-rule="evenodd" stroke="none" />
    <path d="M499.298 386.4L507.702 386.4L507.702 158.2L499.298 158.2L499.298 386.4Z" id="Stroke-10" fill="none" fill-rule="evenodd" stroke="#F3F1DD" stroke-width="2.1" />
    <path d="M434.873 345.1L572.828 345.1L572.828 328.3L434.873 328.3L434.873 345.1Z" id="Fill-11" fill="#4EBFEC" fill-rule="evenodd" stroke="none" />
    <path d="M434.873 345.1L572.828 345.1L572.828 328.3L434.873 328.3L434.873 345.1Z" id="Stroke-12" fill="none" fill-rule="evenodd" stroke="#F3F1DD" stroke-width="2.1" />
    <path d="M495.097 392.7L511.903 392.7L511.903 350L495.097 350L495.097 392.7Z" id="Fill-13" fill="#4EBFEC" fill-rule="evenodd" stroke="none" />
    <path d="M495.097 392.7L511.903 392.7L511.903 350L495.097 350L495.097 392.7Z" id="Stroke-14" fill="none" fill-rule="evenodd" stroke="#F3F1DD" stroke-width="2.1" />
    <path d="M471.287 350.7L536.413 350.7L536.413 322.7L471.287 322.7L471.287 350.7Z" id="Fill-15" fill="#4EBFEC" fill-rule="evenodd" stroke="none" />
    <path d="M471.287 350.7L536.413 350.7L536.413 322.7L471.287 322.7L471.287 350.7Z" id="Stroke-16" fill="none" fill-rule="evenodd" stroke="#F3F1DD" stroke-width="2.1" />
    <path d="M98.7392 345.1L236.694 345.1L236.694 328.3L98.7392 328.3L98.7392 345.1Z" id="Fill-17" fill="#4EBFEC" fill-rule="evenodd" stroke="none" />
    <path d="M98.7392 345.1L236.694 345.1L236.694 328.3L98.7392 328.3L98.7392 345.1Z" id="Stroke-18" fill="none" fill-rule="evenodd" stroke="#F3F1DD" stroke-width="2.1" />
    <path d="M159.663 392.7L176.47 392.7L176.47 350L159.663 350L159.663 392.7Z" id="Fill-19" fill="#4EBFEC" fill-rule="evenodd" stroke="none" />
    <path d="M159.663 392.7L176.47 392.7L176.47 350L159.663 350L159.663 392.7Z" id="Stroke-20" fill="none" fill-rule="evenodd" stroke="#F3F1DD" stroke-width="2.1" />
    <path d="M135.154 350.7L200.28 350.7L200.28 322.7L135.154 322.7L135.154 350.7Z" id="Fill-21" fill="#4EBFEC" fill-rule="evenodd" stroke="none" />
    <path d="M135.154 350.7L200.28 350.7L200.28 322.7L135.154 322.7L135.154 350.7Z" id="Stroke-22" fill="none" fill-rule="evenodd" stroke="#F3F1DD" stroke-width="2.1" />
    <path d="M770.306 345.1L908.261 345.1L908.261 328.3L770.306 328.3L770.306 345.1Z" id="Fill-23" fill="#4EBFEC" fill-rule="evenodd" stroke="none" />
    <path d="M770.306 345.1L908.261 345.1L908.261 328.3L770.306 328.3L770.306 345.1Z" id="Stroke-24" fill="none" fill-rule="evenodd" stroke="#F3F1DD" stroke-width="2.1" />
    <path d="M831.23 392.7L848.037 392.7L848.037 350L831.23 350L831.23 392.7Z" id="Fill-25" fill="#4EBFEC" fill-rule="evenodd" stroke="none" />
    <path d="M831.23 392.7L848.037 392.7L848.037 350L831.23 350L831.23 392.7Z" id="Stroke-26" fill="none" fill-rule="evenodd" stroke="#F3F1DD" stroke-width="2.1" />
    <path d="M806.72 350.7L871.846 350.7L871.846 322.7L806.72 322.7L806.72 350.7Z" id="Fill-27" fill="#4EBFEC" fill-rule="evenodd" stroke="none" />
    <path d="M806.72 350.7L871.846 350.7L871.846 322.7L806.72 322.7L806.72 350.7Z" id="Stroke-28" fill="none" fill-rule="evenodd" stroke="#F3F1DD" stroke-width="2.1" />
    <g id="Group-43" transform="translate(434.87274 5.684342E-14)">
      <path d="M105.381 203L32.5737 203C14.5837 203 0 188.418 0 170.429L0 32.5706C0 14.5823 14.5837 0 32.5737 0L105.381 0C123.371 0 137.955 14.5823 137.955 32.5706L137.955 170.429C137.955 188.418 123.371 203 105.381 203" id="Fill-29" fill="#4EBFEC" fill-rule="evenodd" stroke="none" />
      <path d="M105.381 203L32.5737 203C14.5837 203 0 188.418 0 170.429L0 32.5706C0 14.5823 14.5837 0 32.5737 0L105.381 0C123.371 0 137.955 14.5823 137.955 32.5706L137.955 170.429C137.955 188.418 123.371 203 105.381 203Z" id="Stroke-31" fill="none" fill-rule="evenodd" stroke="#F3F1DD" stroke-width="2.1" />
      <path d="M85.7964 68.5327C85.7964 76.468 79.3629 82.9009 71.4269 82.9009C63.4919 82.9009 57.0584 76.468 57.0584 68.5327C57.0584 60.5974 63.4919 54.1646 71.4269 54.1646C79.3629 54.1646 85.7964 60.5974 85.7964 68.5327" id="Fill-33" fill="#4EBFEC" fill-rule="evenodd" stroke="none" />
      <path d="M85.7964 68.5327C85.7964 76.468 79.3629 82.9009 71.4269 82.9009C63.4919 82.9009 57.0584 76.468 57.0584 68.5327C57.0584 60.5974 63.4919 54.1646 71.4269 54.1646C79.3629 54.1646 85.7964 60.5974 85.7964 68.5327Z" id="Stroke-35" fill="none" fill-rule="evenodd" stroke="#F3F1DD" stroke-width="2.1" />
      <path d="M91.8348 68.5327C91.8348 79.8026 82.6975 88.9379 71.4276 88.9379C60.1567 88.9379 51.0194 79.8026 51.0194 68.5327C51.0194 57.2629 60.1567 48.1275 71.4276 48.1275C82.6975 48.1275 91.8348 57.2629 91.8348 68.5327Z" id="Stroke-37" fill="none" fill-rule="evenodd" stroke="#F3F1DD" stroke-width="2.1" />
      <g id="Group-42" transform="translate(70.90219 68.53271)">
        <path d="M0.52501 0L0.52501 14.3682" id="Fill-39" fill="#4EBFEC" fill-rule="evenodd" stroke="none" />
        <path d="M0.52501 0L0.52501 14.3682" id="Stroke-41" fill="none" fill-rule="evenodd" stroke="#F3F1DD" stroke-width="2.1" />
      </g>
    </g>
  </g>
</svg>