<?xml version="1.0" encoding="utf-8"?>
<svg width="60.83676px" height="60.85556px" viewBox="0 0 60.83676 60.85556" version="1.1" xmlns:xlink="http://www.w3.org/1999/xlink" xmlns="http://www.w3.org/2000/svg">
  <defs>
    <path d="M-1.00466e-15 30.4278C-1.00466e-15 47.2318 13.618 60.8556 30.4174 60.8556L30.4174 60.8556C47.2187 60.8556 60.8368 47.2318 60.8368 30.4278L60.8368 30.4278C60.8368 13.6238 47.2187 0 30.4174 0L30.4174 0C13.618 0 -1.00466e-15 13.6238 -1.00466e-15 30.4278" id="path_1" />
    <clipPath id="mask_1">
      <use xlink:href="#path_1" />
    </clipPath>
  </defs>
  <g id="Group-41">
    <g id="Group-34">
      <path d="M-1.00466e-15 30.4278C-1.00466e-15 47.2318 13.618 60.8556 30.4174 60.8556L30.4174 60.8556C47.2187 60.8556 60.8368 47.2318 60.8368 30.4278L60.8368 30.4278C60.8368 13.6238 47.2187 0 30.4174 0L30.4174 0C13.618 0 -1.00466e-15 13.6238 -1.00466e-15 30.4278" id="Clip-33" fill="none" fill-rule="evenodd" stroke="none" />
      <g clip-path="url(#mask_1)">
        <path d="M30.5487 31.6132C29.8951 31.6132 29.3642 31.0821 29.3642 30.4284C29.3642 29.7747 29.8951 29.2416 30.5487 29.2416C30.7417 29.2416 30.9247 29.2899 31.0856 29.3724C31.2947 29.479 31.4677 29.6459 31.5823 29.8511C31.6788 30.0221 31.7331 30.2192 31.7331 30.4284C31.7331 31.0821 31.2022 31.6132 30.5487 31.6132M43.475 28.6583C42.7108 28.6583 42.0653 29.1591 41.8461 29.8511L32.6984 29.8511C32.4892 29.0726 31.8699 28.4632 31.0856 28.2681L31.0856 19.0655C31.7693 18.8422 32.262 18.2006 32.262 17.4422C32.262 16.4988 31.4999 15.7345 30.5567 15.7345C29.6136 15.7345 28.8494 16.4988 28.8494 17.4422C28.8494 18.2066 29.3522 18.8523 30.0419 19.0715L30.0419 28.26C30.0158 28.266 29.9896 28.2721 29.9635 28.2801L25.3665 20.3146C25.8471 19.7796 25.9537 18.977 25.5756 18.3192C25.1031 17.5046 24.0594 17.225 23.245 17.6957C22.4285 18.1664 22.149 19.2103 22.6196 20.027C23.0017 20.6888 23.7578 20.9985 24.4656 20.8396L29.0505 28.783C29.0284 28.8031 29.0043 28.8232 28.9822 28.8454L21.039 24.2571C21.1858 23.5531 20.8781 22.8048 20.2225 22.4247C19.4061 21.954 18.3624 22.2336 17.8919 23.0503C17.4193 23.8669 17.6988 24.9109 18.5153 25.3816C19.1769 25.7638 19.9873 25.6531 20.5222 25.1623L28.4332 29.7304C28.4231 29.7646 28.4131 29.8008 28.403 29.835L19.2593 29.835C19.0381 29.1511 18.3966 28.6583 17.6385 28.6583C16.6954 28.6583 15.9312 29.4206 15.9312 30.364C15.9312 31.3074 16.6954 32.0718 17.6385 32.0718C18.4027 32.0718 19.0482 31.5689 19.2653 30.877L28.3668 30.877C28.3749 30.9192 28.3869 30.9594 28.397 30.9997L20.5081 35.5557C19.9732 35.0749 19.1708 34.9683 18.5153 35.3465C17.6988 35.8192 17.4193 36.8631 17.8919 37.6778C18.3624 38.4945 19.4061 38.7741 20.2225 38.3034C20.8841 37.9212 21.1918 37.1649 21.035 36.4568L28.8957 31.9169C28.9259 31.9511 28.958 31.9853 28.9902 32.0175L24.4495 39.8844C23.7477 39.7376 22.9976 40.0453 22.6196 40.7011C22.149 41.5177 22.4285 42.5617 23.245 43.0324C24.0594 43.5051 25.1031 43.2255 25.5756 42.4088C25.9577 41.747 25.8451 40.9364 25.3565 40.4014L29.8851 32.5545C29.9313 32.5686 29.9796 32.5807 30.0279 32.5907L30.0279 41.6646C29.3441 41.8858 28.8494 42.5275 28.8494 43.2858C28.8494 44.2292 29.6136 44.9936 30.5567 44.9936C31.4999 44.9936 32.262 44.2292 32.262 43.2858C32.262 42.5215 31.7613 41.8758 31.0695 41.6585L31.0695 32.5928C31.1178 32.5807 31.164 32.5706 31.2103 32.5565L35.7469 40.4154C35.2663 40.9485 35.1577 41.7511 35.5378 42.4088C36.0084 43.2255 37.052 43.5051 37.8685 43.0324C38.6849 42.5617 38.9644 41.5177 38.4939 40.7011C38.1118 40.0393 37.3537 39.7315 36.6458 39.8884L32.1051 32.0195C32.1373 31.9893 32.1655 31.9551 32.1956 31.9229L40.0745 36.4729C39.9257 37.1749 40.2354 37.9252 40.8909 38.3034C41.7074 38.7741 42.751 38.4945 43.2216 37.6778C43.6921 36.8631 43.4126 35.8192 42.5962 35.3465C41.9366 34.9643 41.1262 35.0769 40.5913 35.5657L32.6964 31.0077C32.7084 30.9695 32.7185 30.9333 32.7265 30.893L41.8521 30.893C42.0754 31.577 42.7168 32.0718 43.475 32.0718C44.4161 32.0718 45.1802 31.3074 45.1802 30.364C45.1802 29.4206 44.4161 28.6583 43.475 28.6583" id="Fill-32" fill="#4EBFEC" fill-rule="evenodd" stroke="none" />
      </g>
    </g>
    <g id="Group-37">
      <path d="M-1.00466e-15 30.4278C-1.00466e-15 47.2318 13.618 60.8556 30.4174 60.8556L30.4174 60.8556C47.2187 60.8556 60.8368 47.2318 60.8368 30.4278L60.8368 30.4278C60.8368 13.6238 47.2187 0 30.4174 0L30.4174 0C13.618 0 -1.00466e-15 13.6238 -1.00466e-15 30.4278" id="Clip-36" fill="none" fill-rule="evenodd" stroke="none" />
      <g clip-path="url(#mask_1)">
        <path d="M49.6698 19.5662C49.1993 18.7495 48.1556 18.4699 47.3392 18.9406C46.6776 19.3228 46.3679 20.0811 46.5247 20.7891L36.7416 26.4394C36.4922 26.5822 36.4077 26.9021 36.5505 27.1515C36.647 27.3184 36.824 27.413 37.003 27.413C37.0915 27.413 37.1819 27.3888 37.2644 27.3426L47.0516 21.6883C47.5865 22.169 48.3889 22.2776 49.0444 21.8975C49.8609 21.4268 50.1404 20.3828 49.6698 19.5662" id="Fill-35" fill="#4EBFEC" fill-rule="evenodd" stroke="none" />
      </g>
    </g>
    <g id="Group-40">
      <path d="M-1.00466e-15 30.4278C-1.00466e-15 47.2318 13.618 60.8556 30.4174 60.8556L30.4174 60.8556C47.2187 60.8556 60.8368 47.2318 60.8368 30.4278L60.8368 30.4278C60.8368 13.6238 47.2187 0 30.4174 0L30.4174 0C13.618 0 -1.00466e-15 13.6238 -1.00466e-15 30.4278" id="Clip-39" fill="none" fill-rule="evenodd" stroke="none" />
      <g clip-path="url(#mask_1)">
        <path d="M32.7112 26.9326C32.7937 26.9809 32.8822 27.003 32.9707 27.003C33.1516 27.003 33.3266 26.9085 33.4231 26.7415L39.0738 16.9516C39.7777 17.0985 40.5257 16.7907 40.9058 16.135C41.3764 15.3183 41.0968 14.2743 40.2804 13.8036C39.464 13.3309 38.4203 13.6105 37.9497 14.4272C37.5676 15.089 37.6782 15.8996 38.1689 16.4347L32.5202 26.2206C32.3774 26.47 32.4619 26.7878 32.7112 26.9326" id="Fill-38" fill="#4EBFEC" fill-rule="evenodd" stroke="none" />
      </g>
    </g>
  </g>
</svg>