<?xml version="1.0" encoding="utf-8"?>
<svg width="576px" height="432px" viewBox="0 0 576 432" version="1.1" xmlns:xlink="http://www.w3.org/1999/xlink" xmlns="http://www.w3.org/2000/svg">
  <defs>
    <path d="M0 0L576 0L576 432L0 432L0 0Z" id="path_1" />
    <clipPath id="mask_1">
      <use xlink:href="#path_1" />
    </clipPath>
  </defs>
  <g id="Group-23-Copy-3" transform="matrix(-1 0 0 1 576 0)">
    <path d="M0 0L576 0L576 432L0 432L0 0Z" id="Mask" fill="none" fill-rule="evenodd" stroke="none" />
    <g clip-path="url(#mask_1)">
      <g id="Group-23-Copy" transform="translate(46.8 -335.6)">
        <path d="M174.8 531.189L174.8 89.6L161.6 94.943L161.6 531.2C164.256 531.188 166.926 531.181 169.612 531.181C171.348 531.181 173.076 531.184 174.8 531.189Z" id="Stroke-9" fill="none" fill-rule="evenodd" stroke="#F2F0DC" stroke-width="0.8" />
        <path d="M339.6 561.2L339.6 547.968C339.6 538.734 266.373 531.217 175.004 530.941L175.004 89.2L161.763 94.5448L161.763 530.952C71.7172 531.373 0 538.83 0 547.968L0 561.2" id="Stroke-11" fill="none" fill-rule="evenodd" stroke="#F2F0DC" stroke-width="0.8" />
        <path d="M167.955 557.966L169.059 610.883L259.6 852.317L192.247 867.2L192.247 814.834L86.8 550.8L167.955 557.966Z" id="Stroke-15" fill="none" fill-rule="evenodd" stroke="#F2F0DC" stroke-width="0.8" />
        <path d="M192.4 867.2L140.552 857.829L141.103 808.219L35.2 554.658L87.0486 550.8" id="Stroke-17" fill="none" fill-rule="evenodd" stroke="#F2F0DC" stroke-width="0.8" />
        <path d="M339.6 561.6C339.6 552.322 263.578 544.8 169.8 544.8C76.0221 544.8 0 552.322 0 561.6C0 565.867 16.0877 569.762 42.5778 572.725L35.0514 554.717L86.9127 550.861L168.015 558.023L168.441 578.398C168.894 578.398 169.346 578.4 169.8 578.4C263.578 578.4 339.6 570.878 339.6 561.6Z" id="Stroke-21" fill="none" fill-rule="evenodd" stroke="#F2F0DC" stroke-width="0.8" />
      </g>
    </g>
  </g>
</svg>