<?xml version="1.0" encoding="utf-8"?>
<svg width="719px" height="707px" viewBox="0 0 719 707" version="1.1" xmlns:xlink="http://www.w3.org/1999/xlink" xmlns="http://www.w3.org/2000/svg">
  <g id="world_inverse">
    <path d="M282.263 5.46151C282.263 8.49963 279.799 10.9625 276.759 10.9625C273.719 10.9625 271.255 8.49963 271.255 5.46151C271.255 2.64369 273.378 0.319681 276.113 -1.12974e-15L0 0L0 328.991C0.417733 320.569 1.12471 312.223 2.11264 303.963C5.66766 304.091 8.98504 305.126 11.8349 306.873C10.5018 304.259 9.73466 301.308 9.73466 298.172C9.73466 287.563 18.3402 278.963 28.955 278.963C39.5699 278.963 48.1754 287.563 48.1754 298.172C48.1754 301.308 47.4083 304.259 46.0752 306.873C49.1143 305.008 52.679 303.913 56.5065 303.913C60.3339 303.913 63.8967 305.008 66.9358 306.873C65.6046 304.259 64.8376 301.308 64.8376 298.172C64.8376 287.563 73.4411 278.963 84.0579 278.963C94.6727 278.963 103.278 287.563 103.278 298.172C103.278 301.308 102.511 304.259 101.178 306.873C104.217 305.008 107.78 303.913 111.607 303.913C115.435 303.913 118.999 305.008 122.039 306.873C120.705 304.259 119.938 301.308 119.938 298.172C119.938 287.563 128.544 278.963 139.159 278.963C149.773 278.963 158.379 287.563 158.379 298.172C158.379 301.308 157.612 304.259 156.279 306.873C159.318 305.008 162.883 303.913 166.71 303.913C170.538 303.913 174.1 305.008 177.139 306.873C175.808 304.259 175.041 301.308 175.041 298.172C175.041 287.563 183.645 278.963 194.262 278.963C204.876 278.963 213.482 287.563 213.482 298.172C213.482 301.308 212.715 304.259 211.382 306.873C214.421 305.008 217.984 303.913 221.811 303.913C225.64 303.913 229.203 305.008 232.242 306.873C230.909 304.259 230.142 301.308 230.142 298.172C230.142 287.563 238.748 278.963 249.362 278.963C259.977 278.963 268.583 287.563 268.583 298.172C268.583 301.308 267.816 304.259 266.483 306.873C269.522 305.008 273.086 303.913 276.914 303.913C280.741 303.913 284.304 305.008 287.343 306.873C286.012 304.259 285.243 301.308 285.243 298.172C285.243 287.563 293.849 278.963 304.465 278.963C315.08 278.963 323.686 287.563 323.686 298.172C323.686 301.308 322.919 304.259 321.585 306.873C324.625 305.008 328.187 303.913 332.015 303.913C335.844 303.913 339.407 305.008 342.446 306.873C341.113 304.259 340.346 301.308 340.346 298.172C340.346 287.563 348.951 278.963 359.566 278.963C370.181 278.963 378.787 287.563 378.787 298.172C378.787 301.308 378.02 304.259 376.688 306.873C379.728 305.008 383.29 303.913 387.118 303.913C390.945 303.913 394.508 305.008 397.547 306.873C396.214 304.259 395.447 301.308 395.447 298.172C395.447 287.563 404.052 278.963 414.669 278.963C425.284 278.963 433.889 287.563 433.889 298.172C433.889 301.308 433.122 304.259 431.789 306.873C434.828 305.008 438.391 303.913 442.219 303.913C446.046 303.913 449.611 305.008 452.65 306.873C451.317 304.259 450.55 301.308 450.55 298.172C450.55 287.563 459.155 278.963 469.77 278.963C480.385 278.963 488.99 287.563 488.99 298.172C488.99 301.308 488.223 304.259 486.89 306.873C489.929 305.008 493.494 303.913 497.321 303.913C501.149 303.913 504.712 305.008 507.751 306.873C506.42 304.259 505.653 301.308 505.653 298.172C505.653 287.563 514.256 278.963 524.873 278.963C535.488 278.963 544.093 287.563 544.093 298.172C544.093 301.308 543.326 304.259 541.993 306.873C545.032 305.008 548.595 303.913 552.422 303.913C556.252 303.913 559.815 305.008 562.854 306.873C561.521 304.259 560.754 301.308 560.754 298.172C560.754 287.563 569.359 278.963 579.974 278.963C590.589 278.963 599.194 287.563 599.194 298.172C599.194 301.308 598.427 304.259 597.094 306.873C600.133 305.008 603.698 303.913 607.525 303.913C611.353 303.913 614.915 305.008 617.955 306.873C616.623 304.259 615.856 301.308 615.856 298.172C615.856 287.563 624.46 278.963 635.077 278.963C645.692 278.963 654.297 287.563 654.297 298.172C654.297 301.308 653.53 304.259 652.197 306.873C655.236 305.008 658.799 303.913 662.626 303.913C666.456 303.913 670.018 305.008 673.058 306.873C671.724 304.259 670.957 301.308 670.957 298.172C670.957 287.563 679.563 278.963 690.178 278.963C700.793 278.963 709.398 287.563 709.398 298.172C709.398 301.308 708.631 304.259 707.298 306.873C710.148 305.126 713.467 304.091 717.022 303.963C717.911 311.398 718.573 318.903 719 326.47L719 0L443.02 0C445.756 0.319681 447.878 2.64369 447.878 5.46151C447.878 8.49963 445.414 10.9625 442.374 10.9625C439.334 10.9625 436.87 8.49963 436.87 5.46151C436.87 2.64369 438.993 0.319681 441.728 -1.12974e-15L387.482 0C390.217 0.319681 392.339 2.64369 392.339 5.46151C392.339 8.49963 389.875 10.9625 386.836 10.9625C383.796 10.9625 381.332 8.49963 381.332 5.46151C381.332 2.64369 383.455 0.319681 386.19 -1.12974e-15L332.443 0C335.179 0.319681 337.301 2.64369 337.301 5.46151C337.301 8.49963 334.837 10.9625 331.797 10.9625C328.758 10.9625 326.293 8.49963 326.293 5.46151C326.293 2.64369 328.416 0.319681 331.151 -1.12974e-15L277.405 0C280.141 0.319681 282.263 2.64369 282.263 5.46151ZM719 343.82C718.58 343.849 718.156 343.867 717.729 343.867C714.524 343.867 711.504 343.095 708.818 341.755C710.194 344.529 710.986 347.646 710.986 350.952C710.986 353.145 710.642 355.258 710.012 357.243C712.408 356.31 715.003 355.777 717.729 355.777C718.157 355.777 718.58 355.799 719 355.829L719 343.82ZM719 368.033C718.41 378.216 717.393 388.284 715.979 398.224C714.149 398.068 712.389 397.678 710.72 397.095C711.423 399.229 711.819 401.501 711.819 403.871C711.819 405.622 711.587 407.314 711.195 408.943C712.24 408.632 713.314 408.391 714.416 408.227C710.132 433.247 703.275 457.386 694.108 480.357C692.829 480.579 691.52 480.718 690.178 480.718C688.655 480.718 687.171 480.562 685.73 480.282C685.912 481.454 686.035 482.647 686.035 483.872C686.035 485.198 685.898 486.49 685.686 487.755C687.14 487.473 688.64 487.315 690.178 487.315C690.535 487.315 690.883 487.351 691.236 487.369C636.535 616.424 508.632 706.963 359.566 706.963C210.503 706.963 82.5973 616.424 27.8963 487.369C28.2498 487.351 28.5976 487.315 28.955 487.315C30.493 487.315 31.9923 487.473 33.4471 487.755C33.2346 486.49 33.0993 485.198 33.0993 483.872C33.0993 482.647 33.2211 481.454 33.4027 480.282C31.9614 480.562 30.4775 480.718 28.955 480.718C27.6122 480.718 26.3042 480.579 25.0252 480.357C15.8594 457.386 9.0005 433.247 4.71901 408.227C5.81837 408.391 6.89453 408.632 7.93785 408.943C7.54564 407.314 7.31573 405.622 7.31573 403.871C7.31573 401.501 7.70987 399.229 8.41315 397.095C6.74383 397.678 4.98371 398.068 3.15596 398.224C1.62893 387.489 0.562945 376.605 2.08999e-14 365.588L0 707L719 707L719 368.033ZM-1.66533e-16 355.839C0.463713 355.804 0.930608 355.777 1.40357 355.777C4.12973 355.777 6.72644 356.31 9.12029 357.243C8.49043 355.258 8.14652 353.145 8.14652 350.952C8.14652 347.646 8.93867 344.529 10.3144 341.755C7.62872 343.095 4.61082 343.867 1.40357 343.867C0.930959 343.867 0.463957 343.845 6.7793e-15 343.81L0 355.839L-1.66533e-16 355.839ZM258.246 32.2115C258.246 37.0443 254.326 40.9625 249.49 40.9625C244.655 40.9625 240.734 37.0443 240.734 32.2115C240.734 27.3788 244.655 23.4625 249.49 23.4625C254.326 23.4625 258.246 27.3788 258.246 32.2115ZM313.284 32.2115C313.284 37.0443 309.364 40.9625 304.528 40.9625C299.693 40.9625 295.772 37.0443 295.772 32.2115C295.772 27.3788 299.693 23.4625 304.528 23.4625C309.364 23.4625 313.284 27.3788 313.284 32.2115ZM368.323 32.2115C368.323 37.0443 364.402 40.9625 359.567 40.9625C354.731 40.9625 350.811 37.0443 350.811 32.2115C350.811 27.3788 354.731 23.4625 359.567 23.4625C364.402 23.4625 368.323 27.3788 368.323 32.2115ZM423.361 32.2115C423.361 37.0443 419.442 40.9625 414.606 40.9625C409.77 40.9625 405.849 37.0443 405.849 32.2115C405.849 27.3788 409.77 23.4625 414.606 23.4625C419.442 23.4625 423.361 27.3788 423.361 32.2115ZM478.399 32.2115C478.399 37.0443 474.478 40.9625 469.642 40.9625C464.806 40.9625 460.887 37.0443 460.887 32.2115C460.887 27.3788 464.806 23.4625 469.642 23.4625C474.478 23.4625 478.399 27.3788 478.399 32.2115ZM202.708 32.105C202.708 36.9966 198.782 40.9625 193.94 40.9625C189.173 40.9625 185.313 37.1135 185.195 32.3272C189.764 29.7722 194.395 27.3186 199.083 24.9625C201.27 26.5742 202.708 29.1622 202.708 32.105ZM524.693 40.9625C519.851 40.9625 515.925 36.9966 515.925 32.105C515.925 29.1622 517.362 26.5722 519.548 24.9625C524.238 27.3186 528.867 29.7722 533.437 32.3252C533.318 37.1135 529.46 40.9625 524.693 40.9625ZM177.19 58.4635C177.19 64.2615 172.485 68.9625 166.683 68.9625C160.88 68.9625 156.175 64.2615 156.175 58.4635C156.175 52.6634 160.88 47.9625 166.683 47.9625C172.485 47.9625 177.19 52.6634 177.19 58.4635ZM232.228 58.4635C232.228 64.2615 227.524 68.9625 221.721 68.9625C215.918 68.9625 211.214 64.2615 211.214 58.4635C211.214 52.6634 215.918 47.9625 221.721 47.9625C227.524 47.9625 232.228 52.6634 232.228 58.4635ZM287.266 58.4635C287.266 64.2615 282.562 68.9625 276.759 68.9625C270.956 68.9625 266.252 64.2615 266.252 58.4635C266.252 52.6634 270.956 47.9625 276.759 47.9625C282.562 47.9625 287.266 52.6634 287.266 58.4635ZM342.305 58.4635C342.305 64.2615 337.6 68.9625 331.797 68.9625C325.995 68.9625 321.29 64.2615 321.29 58.4635C321.29 52.6634 325.995 47.9625 331.797 47.9625C337.6 47.9625 342.305 52.6634 342.305 58.4635ZM397.343 58.4635C397.343 64.2615 392.638 68.9625 386.836 68.9625C381.033 68.9625 376.328 64.2615 376.328 58.4635C376.328 52.6634 381.033 47.9625 386.836 47.9625C392.638 47.9625 397.343 52.6634 397.343 58.4635ZM452.881 58.4635C452.881 64.2615 448.177 68.9625 442.374 68.9625C436.571 68.9625 431.867 64.2615 431.867 58.4635C431.867 52.6634 436.571 47.9625 442.374 47.9625C448.177 47.9625 452.881 52.6634 452.881 58.4635ZM507.92 58.4635C507.92 64.2615 503.215 68.9625 497.412 68.9625C491.61 68.9625 486.905 64.2615 486.905 58.4635C486.905 52.6634 491.61 47.9625 497.412 47.9625C503.215 47.9625 507.92 52.6634 507.92 58.4635ZM562.958 58.4635C562.958 64.2615 558.253 68.9625 552.451 68.9625C546.648 68.9625 541.943 64.2615 541.943 58.4635C541.943 52.6634 546.648 47.9625 552.451 47.9625C558.253 47.9625 562.958 52.6634 562.958 58.4635ZM151.172 85.4615C151.172 92.0905 145.794 97.4625 139.163 97.4625C132.531 97.4625 127.155 92.0905 127.155 85.4615C127.155 78.8344 132.531 73.4625 139.163 73.4625C145.794 73.4625 151.172 78.8344 151.172 85.4615ZM206.21 85.4615C206.21 92.0905 200.833 97.4625 194.201 97.4625C187.569 97.4625 182.193 92.0905 182.193 85.4615C182.193 78.8344 187.569 73.4625 194.201 73.4625C200.833 73.4625 206.21 78.8344 206.21 85.4615ZM261.248 85.4615C261.248 92.0905 255.871 97.4625 249.24 97.4625C242.609 97.4625 237.232 92.0905 237.232 85.4615C237.232 78.8344 242.609 73.4625 249.24 73.4625C255.871 73.4625 261.248 78.8344 261.248 85.4615ZM316.287 85.4615C316.287 92.0905 310.911 97.4625 304.279 97.4625C297.647 97.4625 292.27 92.0905 292.27 85.4615C292.27 78.8344 297.647 73.4625 304.279 73.4625C310.911 73.4625 316.287 78.8344 316.287 85.4615ZM371.325 85.4615C371.325 92.0905 365.949 97.4625 359.317 97.4625C352.686 97.4625 347.308 92.0905 347.308 85.4615C347.308 78.8344 352.686 73.4625 359.317 73.4625C365.949 73.4625 371.325 78.8344 371.325 85.4615ZM426.363 85.4615C426.363 92.0905 420.987 97.4625 414.356 97.4625C407.724 97.4625 402.346 92.0905 402.346 85.4615C402.346 78.8344 407.724 73.4625 414.356 73.4625C420.987 73.4625 426.363 78.8344 426.363 85.4615ZM481.902 85.4615C481.902 92.0905 476.524 97.4625 469.892 97.4625C463.261 97.4625 457.885 92.0905 457.885 85.4615C457.885 78.8344 463.261 73.4625 469.892 73.4625C476.524 73.4625 481.902 78.8344 481.902 85.4615ZM536.94 85.4615C536.94 92.0905 531.563 97.4625 524.931 97.4625C518.3 97.4625 512.923 92.0905 512.923 85.4615C512.923 78.8344 518.3 73.4625 524.931 73.4625C531.563 73.4625 536.94 78.8344 536.94 85.4615ZM591.978 85.4615C591.978 92.0905 586.601 97.4625 579.97 97.4625C573.338 97.4625 567.961 92.0905 567.961 85.4615C567.961 78.8344 573.338 73.4625 579.97 73.4625C586.601 73.4625 591.978 78.8344 591.978 85.4615ZM125.154 111.962C125.154 119.418 119.106 125.463 111.644 125.463C104.183 125.463 98.1352 119.418 98.1352 111.962C98.1352 104.505 104.183 98.4625 111.644 98.4625C119.106 98.4625 125.154 104.505 125.154 111.962ZM180.192 111.962C180.192 119.418 174.144 125.463 166.683 125.463C159.221 125.463 153.173 119.418 153.173 111.962C153.173 104.505 159.221 98.4625 166.683 98.4625C174.144 98.4625 180.192 104.505 180.192 111.962ZM235.23 111.962C235.23 119.418 229.182 125.463 221.721 125.463C214.26 125.463 208.211 119.418 208.211 111.962C208.211 104.505 214.26 98.4625 221.721 98.4625C229.182 98.4625 235.23 104.505 235.23 111.962ZM290.268 111.962C290.268 119.418 284.22 125.463 276.759 125.463C269.298 125.463 263.25 119.418 263.25 111.962C263.25 104.505 269.298 98.4625 276.759 98.4625C284.22 98.4625 290.268 104.505 290.268 111.962ZM345.307 111.962C345.307 119.418 339.259 125.463 331.797 125.463C324.336 125.463 318.288 119.418 318.288 111.962C318.288 104.505 324.336 98.4625 331.797 98.4625C339.259 98.4625 345.307 104.505 345.307 111.962ZM400.345 111.962C400.345 119.418 394.297 125.463 386.836 125.463C379.374 125.463 373.326 119.418 373.326 111.962C373.326 104.505 379.374 98.4625 386.836 98.4625C394.297 98.4625 400.345 104.505 400.345 111.962ZM455.883 111.962C455.883 119.418 449.835 125.463 442.374 125.463C434.913 125.463 428.865 119.418 428.865 111.962C428.865 104.505 434.913 98.4625 442.374 98.4625C449.835 98.4625 455.883 104.505 455.883 111.962ZM510.922 111.962C510.922 119.418 504.874 125.463 497.412 125.463C489.951 125.463 483.903 119.418 483.903 111.962C483.903 104.505 489.951 98.4625 497.412 98.4625C504.874 98.4625 510.922 104.505 510.922 111.962ZM565.96 111.962C565.96 119.418 559.912 125.463 552.451 125.463C544.989 125.463 538.941 119.418 538.941 111.962C538.941 104.505 544.989 98.4625 552.451 98.4625C559.912 98.4625 565.96 104.505 565.96 111.962ZM620.998 111.962C620.998 119.418 614.95 125.463 607.489 125.463C600.027 125.463 593.979 119.418 593.979 111.962C593.979 104.505 600.027 98.4625 607.489 98.4625C614.95 98.4625 620.998 104.505 620.998 111.962ZM98.6356 138.463C98.6356 146.47 92.1404 152.963 84.1255 152.963C76.1106 152.963 69.6154 146.47 69.6154 138.463C69.6154 135.743 70.3772 133.21 71.6797 131.036C72.3639 130.126 73.0637 129.231 73.7556 128.328C76.3917 125.638 80.0609 123.963 84.1255 123.963C92.1404 123.963 98.6356 130.455 98.6356 138.463ZM124.653 138.463C124.653 130.455 131.149 123.963 139.164 123.963C147.178 123.963 153.674 130.455 153.674 138.463C153.674 146.47 147.178 152.963 139.164 152.963C131.149 152.963 124.653 146.47 124.653 138.463ZM179.692 138.463C179.692 130.455 186.187 123.963 194.202 123.963C202.217 123.963 208.712 130.455 208.712 138.463C208.712 146.47 202.217 152.963 194.202 152.963C186.187 152.963 179.692 146.47 179.692 138.463ZM234.73 138.463C234.73 130.455 241.225 123.963 249.24 123.963C257.255 123.963 263.75 130.455 263.75 138.463C263.75 146.47 257.255 152.963 249.24 152.963C241.225 152.963 234.73 146.47 234.73 138.463ZM289.768 138.463C289.768 130.455 296.263 123.963 304.278 123.963C312.293 123.963 318.788 130.455 318.788 138.463C318.788 146.47 312.293 152.963 304.278 152.963C296.263 152.963 289.768 146.47 289.768 138.463ZM344.806 138.463C344.806 130.455 351.302 123.963 359.316 123.963C367.331 123.963 373.826 130.455 373.826 138.463C373.826 146.47 367.331 152.963 359.316 152.963C351.302 152.963 344.806 146.47 344.806 138.463ZM399.845 138.463C399.845 130.455 406.34 123.963 414.355 123.963C422.369 123.963 428.865 130.455 428.865 138.463C428.865 146.47 422.369 152.963 414.355 152.963C406.34 152.963 399.845 146.47 399.845 138.463ZM455.383 138.463C455.383 130.455 461.88 123.963 469.893 123.963C477.908 123.963 484.403 130.455 484.403 138.463C484.403 146.47 477.908 152.963 469.893 152.963C461.88 152.963 455.383 146.47 455.383 138.463ZM510.421 138.463C510.421 130.455 516.919 123.963 524.931 123.963C532.944 123.963 539.441 130.455 539.441 138.463C539.441 146.47 532.944 152.963 524.931 152.963C516.919 152.963 510.421 146.47 510.421 138.463ZM565.46 138.463C565.46 130.455 571.957 123.963 579.97 123.963C587.983 123.963 594.48 130.455 594.48 138.463C594.48 146.47 587.983 152.963 579.97 152.963C571.957 152.963 565.46 146.47 565.46 138.463ZM620.498 138.463C620.498 130.455 626.995 123.963 635.008 123.963C639.074 123.963 642.744 125.638 645.378 128.33C646.07 129.231 646.769 130.126 647.452 131.034C648.756 133.21 649.518 135.743 649.518 138.463C649.518 146.47 643.023 152.963 635.008 152.963C626.995 152.963 620.498 146.47 620.498 138.463ZM73.6182 128.463C72.9511 129.295 72.2765 130.123 71.6168 130.963C72.183 130.055 72.8502 129.214 73.6182 128.463ZM647.517 130.963C646.858 130.123 646.183 129.295 645.515 128.463C646.282 129.215 646.95 130.056 647.517 130.963ZM127.155 164.714C127.155 173.411 120.099 180.463 111.393 180.463C102.69 180.463 95.6335 173.411 95.6335 164.714C95.6335 156.014 102.69 148.963 111.393 148.963C120.099 148.963 127.155 156.014 127.155 164.714ZM150.672 164.712C150.672 156.014 157.728 148.963 166.431 148.963C175.137 148.963 182.193 156.014 182.193 164.712C182.193 173.411 175.137 180.463 166.431 180.463C157.728 180.463 150.672 173.411 150.672 164.712ZM206.21 164.712C206.21 156.014 213.265 148.963 221.971 148.963C230.677 148.963 237.732 156.014 237.732 164.712C237.732 173.411 230.677 180.463 221.971 180.463C213.265 180.463 206.21 173.411 206.21 164.712ZM261.248 164.712C261.248 156.014 268.303 148.963 277.009 148.963C285.715 148.963 292.77 156.014 292.77 164.712C292.77 173.411 285.715 180.463 277.009 180.463C268.303 180.463 261.248 173.411 261.248 164.712ZM316.287 164.712C316.287 156.014 323.343 148.963 332.048 148.963C340.752 148.963 347.808 156.014 347.808 164.712C347.808 173.411 340.752 180.463 332.048 180.463C323.343 180.463 316.287 173.411 316.287 164.712ZM371.325 164.712C371.325 156.014 378.381 148.963 387.087 148.963C395.79 148.963 402.847 156.014 402.847 164.712C402.847 173.411 395.79 180.463 387.087 180.463C378.381 180.463 371.325 173.411 371.325 164.712ZM426.363 164.712C426.363 156.014 433.419 148.963 442.125 148.963C450.828 148.963 457.885 156.014 457.885 164.712C457.885 173.411 450.828 180.463 442.125 180.463C433.419 180.463 426.363 173.411 426.363 164.712ZM481.401 164.712C481.401 156.014 488.458 148.963 497.162 148.963C505.866 148.963 512.923 156.014 512.923 164.712C512.923 173.411 505.866 180.463 497.162 180.463C488.458 180.463 481.401 173.411 481.401 164.712ZM536.439 164.712C536.439 156.014 543.496 148.963 552.2 148.963C560.904 148.963 567.961 156.014 567.961 164.712C567.961 173.411 560.904 180.463 552.2 180.463C543.496 180.463 536.439 173.411 536.439 164.712ZM591.478 164.712C591.478 156.014 598.534 148.963 607.238 148.963C615.943 148.963 623 156.014 623 164.712C623 173.411 615.943 180.463 607.238 180.463C598.534 180.463 591.478 173.411 591.478 164.712ZM72.1172 165.116C72.1172 173.867 65.043 180.963 56.3157 180.963C51.0906 180.963 46.4728 178.409 43.5974 174.49C48.2889 165.928 53.32 157.585 58.6634 149.463C66.2731 150.603 72.1172 157.165 72.1172 165.116ZM662.315 180.963C653.59 180.963 646.516 173.867 646.516 165.116C646.516 157.167 652.358 150.603 659.968 149.463C665.311 157.585 670.344 165.93 675.036 174.49C672.158 178.409 667.54 180.963 662.315 180.963ZM100.637 191.964C100.637 201.075 93.2449 208.463 84.1255 208.463C75.008 208.463 67.614 201.075 67.614 191.964C67.614 182.85 75.008 175.463 84.1255 175.463C93.2449 175.463 100.637 182.85 100.637 191.964ZM155.675 191.964C155.675 201.075 148.283 208.463 139.164 208.463C130.046 208.463 122.652 201.075 122.652 191.964C122.652 182.85 130.046 175.463 139.164 175.463C148.283 175.463 155.675 182.85 155.675 191.964ZM194.201 175.463C203.321 175.463 210.713 182.85 210.713 191.963C210.713 201.075 203.321 208.463 194.201 208.463C185.083 208.463 177.69 201.075 177.69 191.963C177.69 182.85 185.083 175.463 194.201 175.463ZM249.239 175.463C258.359 175.463 265.751 182.85 265.751 191.963C265.751 201.075 258.359 208.463 249.239 208.463C240.121 208.463 232.728 201.075 232.728 191.963C232.728 182.85 240.121 175.463 249.239 175.463ZM304.277 175.463C313.397 175.463 320.79 182.85 320.79 191.963C320.79 201.075 313.397 208.463 304.277 208.463C295.159 208.463 287.767 201.075 287.767 191.963C287.767 182.85 295.159 175.463 304.277 175.463ZM359.315 175.463C368.435 175.463 375.828 182.85 375.828 191.963C375.828 201.075 368.435 208.463 359.315 208.463C350.197 208.463 342.805 201.075 342.805 191.963C342.805 182.85 350.197 175.463 359.315 175.463ZM414.354 175.463C423.474 175.463 430.866 182.85 430.866 191.963C430.866 201.075 423.474 208.463 414.354 208.463C405.236 208.463 397.843 201.075 397.843 191.963C397.843 182.85 405.236 175.463 414.354 175.463ZM469.892 175.463C479.012 175.463 486.405 182.85 486.405 191.963C486.405 201.075 479.012 208.463 469.892 208.463C460.774 208.463 453.382 201.075 453.382 191.963C453.382 182.85 460.774 175.463 469.892 175.463ZM524.932 175.463C534.05 175.463 541.443 182.85 541.443 191.963C541.443 201.075 534.05 208.463 524.932 208.463C515.812 208.463 508.42 201.075 508.42 191.963C508.42 182.85 515.812 175.463 524.932 175.463ZM563.458 191.962C563.458 182.85 570.851 175.463 579.97 175.463C589.088 175.463 596.481 182.85 596.481 191.962C596.481 201.075 589.088 208.463 579.97 208.463C570.851 208.463 563.458 201.075 563.458 191.962ZM651.519 191.964C651.519 201.075 644.127 208.463 635.007 208.463C625.889 208.463 618.496 201.075 618.496 191.964C618.496 182.85 625.889 175.463 635.007 175.463C644.127 175.463 651.519 182.85 651.519 191.964ZM40.7992 179.963C43.764 182.986 45.5987 187.153 45.5987 191.756C45.5987 200.982 38.2309 208.463 29.1414 208.463C28.6166 208.463 28.0995 208.433 27.5862 208.383C31.5909 198.686 36.0093 189.21 40.7992 179.963ZM691.547 208.383C691.034 208.431 690.515 208.463 689.99 208.463C680.902 208.463 673.535 200.982 673.535 191.756C673.535 187.151 675.367 182.984 678.334 179.963C683.124 189.21 687.542 198.686 691.547 208.383ZM56.3562 200.963C65.8888 200.963 73.6182 208.687 73.6182 218.213C73.6182 227.739 65.8888 235.463 56.3562 235.463C46.8217 235.463 39.0942 227.739 39.0942 218.213C39.0942 208.687 46.8217 200.963 56.3562 200.963ZM111.394 235.463C101.86 235.463 94.1325 227.739 94.1325 218.213C94.1325 208.687 101.86 200.963 111.394 200.963C120.927 200.963 128.656 208.687 128.656 218.213C128.656 227.739 120.927 235.463 111.394 235.463ZM149.17 218.213C149.17 208.687 156.9 200.963 166.432 200.963C175.965 200.963 183.694 208.687 183.694 218.213C183.694 227.741 175.965 235.463 166.432 235.463C156.9 235.463 149.17 227.741 149.17 218.213ZM239.233 218.213C239.233 227.739 231.504 235.463 221.971 235.463C212.438 235.463 204.709 227.739 204.709 218.213C204.709 208.685 212.438 200.963 221.971 200.963C231.504 200.963 239.233 208.685 239.233 218.213ZM294.271 218.213C294.271 227.739 286.542 235.463 277.009 235.463C267.477 235.463 259.747 227.739 259.747 218.213C259.747 208.685 267.477 200.963 277.009 200.963C286.542 200.963 294.271 208.685 294.271 218.213ZM349.309 218.213C349.309 227.739 341.58 235.463 332.047 235.463C322.515 235.463 314.785 227.739 314.785 218.213C314.785 208.685 322.515 200.963 332.047 200.963C341.58 200.963 349.309 208.685 349.309 218.213ZM404.348 218.213C404.348 227.739 396.618 235.463 387.086 235.463C377.553 235.463 369.824 227.739 369.824 218.213C369.824 208.685 377.553 200.963 387.086 200.963C396.618 200.963 404.348 208.685 404.348 218.213ZM459.386 218.213C459.386 227.739 451.657 235.463 442.124 235.463C432.591 235.463 424.862 227.739 424.862 218.213C424.862 208.685 432.591 200.963 442.124 200.963C451.657 200.963 459.386 208.685 459.386 218.213ZM514.424 218.213C514.424 227.739 506.695 235.463 497.162 235.463C487.63 235.463 479.9 227.739 479.9 218.213C479.9 208.685 487.63 200.963 497.162 200.963C506.695 200.963 514.424 208.685 514.424 218.213ZM569.462 218.213C569.462 227.739 561.733 235.463 552.2 235.463C542.668 235.463 534.938 227.739 534.938 218.213C534.938 208.685 542.668 200.963 552.2 200.963C561.733 200.963 569.462 208.685 569.462 218.213ZM624.501 218.213C624.501 227.739 616.771 235.463 607.239 235.463C597.706 235.463 589.977 227.739 589.977 218.213C589.977 208.685 597.706 200.963 607.239 200.963C616.771 200.963 624.501 208.685 624.501 218.213ZM662.277 235.463C652.742 235.463 645.015 227.739 645.015 218.213C645.015 208.687 652.742 200.963 662.277 200.963C671.809 200.963 679.539 208.687 679.539 218.213C679.539 227.739 671.809 235.463 662.277 235.463ZM46.5994 244.963C46.5994 254.903 38.5667 262.963 28.659 262.963C21.1752 262.963 14.7659 258.361 12.0755 251.826C14.103 244.425 16.3528 237.118 18.8287 229.914C21.6526 228.052 25.0273 226.963 28.659 226.963C38.5667 226.963 46.5994 235.022 46.5994 244.963ZM84.1255 226.963C94.0729 226.963 102.138 235.022 102.138 244.963C102.138 254.903 94.0729 262.963 84.1255 262.963C74.1781 262.963 66.113 254.903 66.113 244.963C66.113 235.022 74.1781 226.963 84.1255 226.963ZM139.164 226.963C149.111 226.963 157.176 235.022 157.176 244.963C157.176 254.903 149.111 262.963 139.164 262.963C129.216 262.963 121.151 254.903 121.151 244.963C121.151 235.022 129.216 226.963 139.164 226.963ZM194.202 226.963C204.149 226.963 212.214 235.022 212.214 244.963C212.214 254.903 204.149 262.963 194.202 262.963C184.254 262.963 176.189 254.903 176.189 244.963C176.189 235.022 184.254 226.963 194.202 226.963ZM249.24 226.963C259.187 226.963 267.252 235.022 267.252 244.963C267.252 254.903 259.187 262.963 249.24 262.963C239.293 262.963 231.227 254.903 231.227 244.963C231.227 235.022 239.293 226.963 249.24 226.963ZM304.278 226.963C314.226 226.963 322.291 235.022 322.291 244.963C322.291 254.903 314.226 262.963 304.278 262.963C294.331 262.963 286.266 254.903 286.266 244.963C286.266 235.022 294.331 226.963 304.278 226.963ZM359.316 226.963C369.264 226.963 377.329 235.022 377.329 244.963C377.329 254.903 369.264 262.963 359.316 262.963C349.369 262.963 341.304 254.903 341.304 244.963C341.304 235.022 349.369 226.963 359.316 226.963ZM414.355 226.963C424.302 226.963 432.367 235.022 432.367 244.963C432.367 254.903 424.302 262.963 414.355 262.963C404.407 262.963 396.342 254.903 396.342 244.963C396.342 235.022 404.407 226.963 414.355 226.963ZM469.893 226.963C479.841 226.963 487.906 235.022 487.906 244.963C487.906 254.903 479.841 262.963 469.893 262.963C459.946 262.963 451.881 254.903 451.881 244.963C451.881 235.022 459.946 226.963 469.893 226.963ZM524.931 226.963C534.879 226.963 542.944 235.022 542.944 244.963C542.944 254.903 534.879 262.963 524.931 262.963C514.984 262.963 506.919 254.903 506.919 244.963C506.919 235.022 514.984 226.963 524.931 226.963ZM579.97 226.963C589.917 226.963 597.982 235.022 597.982 244.963C597.982 254.903 589.917 262.963 579.97 262.963C570.022 262.963 561.957 254.903 561.957 244.963C561.957 235.022 570.022 226.963 579.97 226.963ZM635.008 226.963C644.955 226.963 653.02 235.022 653.02 244.963C653.02 254.903 644.955 262.963 635.008 262.963C625.06 262.963 616.995 254.903 616.995 244.963C616.995 235.022 625.06 226.963 635.008 226.963ZM689.974 262.963C680.066 262.963 672.034 254.903 672.034 244.963C672.034 235.022 680.066 226.963 689.974 226.963C693.606 226.963 696.98 228.052 699.804 229.914C702.28 237.118 704.53 244.425 706.558 251.826C703.867 258.361 697.46 262.963 689.974 262.963ZM75.1192 271.212C75.1192 281.568 66.7171 289.963 56.3553 289.963C45.9934 289.963 37.5932 281.568 37.5932 271.212C37.5932 260.857 45.9934 252.463 56.3553 252.463C66.7171 252.463 75.1192 260.857 75.1192 271.212ZM92.6314 271.214C92.6314 260.857 101.033 252.463 111.394 252.463C121.756 252.463 130.157 260.857 130.157 271.214C130.157 281.568 121.756 289.963 111.394 289.963C101.033 289.963 92.6314 281.568 92.6314 271.214ZM147.669 271.214C147.669 260.857 156.071 252.463 166.432 252.463C176.794 252.463 185.195 260.857 185.195 271.214C185.195 281.568 176.794 289.963 166.432 289.963C156.071 289.963 147.669 281.568 147.669 271.214ZM203.208 271.214C203.208 260.857 211.61 252.463 221.971 252.463C232.332 252.463 240.734 260.857 240.734 271.214C240.734 281.568 232.332 289.963 221.971 289.963C211.61 289.963 203.208 281.568 203.208 271.214ZM258.246 271.214C258.246 260.857 266.648 252.463 277.009 252.463C287.371 252.463 295.772 260.857 295.772 271.214C295.772 281.568 287.371 289.963 277.009 289.963C266.648 289.963 258.246 281.568 258.246 271.214ZM313.284 271.214C313.284 260.857 321.686 252.463 332.047 252.463C342.409 252.463 350.811 260.857 350.811 271.214C350.811 281.568 342.409 289.963 332.047 289.963C321.686 289.963 313.284 281.568 313.284 271.214ZM368.323 271.214C368.323 260.857 376.724 252.463 387.086 252.463C397.447 252.463 405.849 260.857 405.849 271.214C405.849 281.568 397.447 289.963 387.086 289.963C376.724 289.963 368.323 281.568 368.323 271.214ZM423.361 271.214C423.361 260.857 431.763 252.463 442.125 252.463C452.487 252.463 460.887 260.857 460.887 271.214C460.887 281.568 452.487 289.963 442.125 289.963C431.763 289.963 423.361 281.568 423.361 271.214ZM478.399 271.214C478.399 260.857 486.799 252.463 497.161 252.463C507.523 252.463 515.925 260.857 515.925 271.214C515.925 281.568 507.523 289.963 497.161 289.963C486.799 289.963 478.399 281.568 478.399 271.214ZM533.437 271.214C533.437 260.857 541.839 252.463 552.2 252.463C562.562 252.463 570.963 260.857 570.963 271.214C570.963 281.568 562.562 289.963 552.2 289.963C541.839 289.963 533.437 281.568 533.437 271.214ZM588.476 271.214C588.476 260.857 596.876 252.463 607.238 252.463C617.599 252.463 626.002 260.857 626.002 271.214C626.002 281.568 617.599 289.963 607.238 289.963C596.876 289.963 588.476 281.568 588.476 271.214ZM662.278 289.963C651.914 289.963 643.514 281.567 643.514 271.213C643.514 260.858 651.914 252.463 662.278 252.463C672.64 252.463 681.04 260.858 681.04 271.213C681.04 281.567 672.64 289.963 662.278 289.963ZM11.3561 254.963C16.5941 258.302 20.081 264.164 20.081 270.855C20.081 280.315 13.1246 288.123 4.06987 289.463C5.94831 277.764 8.38411 266.255 11.3561 254.963ZM715.063 289.463C706.009 288.123 699.052 280.315 699.052 270.855C699.052 264.164 702.539 258.302 707.777 254.963C710.749 266.255 713.185 277.764 715.063 289.463ZM28.955 317.382C25.3536 317.382 21.9976 316.376 19.1169 314.653C20.564 317.418 21.3929 320.556 21.3929 323.891C21.3929 326.969 20.6761 329.871 19.4318 332.476C22.2874 331.003 25.5198 330.157 28.955 330.157C32.3903 330.157 35.6226 331.003 38.4783 332.476C37.234 329.871 36.5172 326.969 36.5172 323.891C36.5172 320.556 37.348 317.416 38.7932 314.653C35.9125 316.376 32.5564 317.382 28.955 317.382ZM93.8961 314.653C91.0134 316.376 87.6574 317.382 84.0579 317.382C80.4565 317.382 77.1005 316.376 74.2198 314.653C75.665 317.416 76.4938 320.556 76.4938 323.891C76.4938 326.969 75.777 329.871 74.5328 332.476C77.3884 331.003 80.6208 330.157 84.0579 330.157C87.4931 330.157 90.7255 331.003 93.5811 332.476C92.3369 329.871 91.6201 326.969 91.6201 323.891C91.6201 320.556 92.4489 317.416 93.8961 314.653ZM148.997 314.653C146.116 316.376 142.76 317.382 139.159 317.382C135.559 317.382 132.201 316.376 129.321 314.653C130.768 317.416 131.597 320.556 131.597 323.891C131.597 326.969 130.88 329.871 129.635 332.476C132.491 331.003 135.723 330.157 139.159 330.157C142.594 330.157 145.826 331.003 148.684 332.476C147.438 329.871 146.721 326.969 146.721 323.891C146.721 320.556 147.552 317.416 148.997 314.653ZM204.098 314.653C201.217 316.376 197.861 317.382 194.262 317.382C190.66 317.382 187.304 316.376 184.423 314.653C185.869 317.416 186.697 320.556 186.697 323.891C186.697 326.969 185.981 329.871 184.736 332.476C187.592 331.003 190.826 330.157 194.262 330.157C197.697 330.157 200.929 331.003 203.785 332.476C202.54 329.871 201.824 326.969 201.824 323.891C201.824 320.556 202.653 317.416 204.098 314.653ZM259.201 314.653C256.32 316.376 252.964 317.382 249.362 317.382C245.763 317.382 242.405 316.376 239.524 314.653C240.971 317.416 241.8 320.556 241.8 323.891C241.8 326.969 241.084 329.871 239.839 332.476C242.695 331.003 245.927 330.157 249.362 330.157C252.798 330.157 256.03 331.003 258.886 332.476C257.643 329.871 256.925 326.969 256.925 323.891C256.925 320.556 257.755 317.416 259.201 314.653ZM314.302 314.653C311.421 316.376 308.065 317.382 304.465 317.382C300.864 317.382 297.508 316.376 294.627 314.653C296.072 317.416 296.901 320.556 296.901 323.891C296.901 326.969 296.184 329.871 294.94 332.476C297.796 331.003 301.03 330.157 304.465 330.157C307.901 330.157 311.133 331.003 313.989 332.476C312.744 329.871 312.028 326.969 312.028 323.891C312.028 320.556 312.856 317.418 314.302 314.653ZM369.404 314.653C366.524 316.376 363.168 317.382 359.566 317.382C355.967 317.382 352.609 316.376 349.728 314.653C351.175 317.416 352.004 320.556 352.004 323.891C352.004 326.969 351.287 329.871 350.043 332.476C352.899 331.003 356.131 330.157 359.566 330.157C363.002 330.157 366.234 331.003 369.089 332.476C367.847 329.871 367.128 326.969 367.128 323.891C367.128 320.556 367.957 317.416 369.404 314.653ZM424.507 314.653C421.627 316.376 418.269 317.382 414.669 317.382C411.068 317.382 407.712 316.376 404.831 314.653C406.276 317.416 407.105 320.556 407.105 323.891C407.105 326.969 406.388 329.871 405.144 332.476C408.002 331.003 411.234 330.157 414.669 330.157C418.104 330.157 421.337 331.003 424.192 332.476C422.948 329.871 422.231 326.969 422.231 323.891C422.231 320.556 423.06 317.416 424.507 314.653ZM479.608 314.653C476.728 316.376 473.372 317.382 469.77 317.382C466.171 317.382 462.813 316.376 459.932 314.653C461.379 317.418 462.208 320.556 462.208 323.891C462.208 326.969 461.491 329.871 460.247 332.476C463.102 331.003 466.335 330.157 469.77 330.157C473.205 330.157 476.438 331.003 479.293 332.476C478.051 329.871 477.334 326.969 477.334 323.891C477.334 320.556 478.163 317.416 479.608 314.653ZM534.711 314.653C531.83 316.376 528.472 317.382 524.873 317.382C521.272 317.382 517.916 316.376 515.035 314.653C516.48 317.416 517.309 320.556 517.309 323.891C517.309 326.969 516.592 329.871 515.348 332.476C518.203 331.003 521.438 330.157 524.873 330.157C528.308 330.157 531.541 331.003 534.396 332.476C533.152 329.871 532.435 326.969 532.435 323.891C532.435 320.556 533.264 317.416 534.711 314.653ZM589.812 314.653C586.931 316.376 583.575 317.382 579.974 317.382C576.374 317.382 573.017 316.376 570.136 314.653C571.583 317.416 572.412 320.556 572.412 323.891C572.412 326.969 571.695 329.871 570.451 332.476C573.306 331.003 576.539 330.157 579.974 330.157C583.409 330.157 586.642 331.003 589.499 332.476C588.255 329.871 587.536 326.969 587.536 323.891C587.536 320.556 588.367 317.416 589.812 314.653ZM644.915 314.653C642.034 316.376 638.676 317.382 635.077 317.382C631.475 317.382 628.119 316.376 625.239 314.653C626.684 317.416 627.513 320.556 627.513 323.891C627.513 326.969 626.796 329.871 625.552 332.476C628.407 331.003 631.642 330.157 635.077 330.157C638.512 330.157 641.744 331.003 644.6 332.476C643.356 329.871 642.639 326.969 642.639 323.891C642.639 320.556 643.468 317.416 644.915 314.653ZM700.016 314.653C697.135 316.376 693.779 317.382 690.178 317.382C686.578 317.382 683.22 316.376 680.34 314.653C681.787 317.416 682.616 320.556 682.616 323.891C682.616 326.969 681.899 329.871 680.655 332.476C683.51 331.003 686.743 330.157 690.178 330.157C693.613 330.157 696.845 331.003 699.701 332.476C698.459 329.871 697.74 326.969 697.74 323.891C697.74 320.556 698.571 317.416 700.016 314.653ZM65.4153 341.755C62.7316 343.095 59.7118 343.867 56.5065 343.867C53.3012 343.867 50.2813 343.095 47.5957 341.755C48.9714 344.529 49.7635 347.646 49.7635 350.952C49.7635 353.145 49.4196 355.258 48.7898 357.243C51.1836 356.31 53.7803 355.777 56.5065 355.777C59.2307 355.777 61.8274 356.31 64.2232 357.243C63.5933 355.258 63.2494 353.145 63.2494 350.952C63.2494 347.646 64.0416 344.529 65.4153 341.755ZM120.518 341.755C117.832 343.095 114.814 343.867 111.607 343.867C108.402 343.867 105.384 343.095 102.698 341.755C104.072 344.529 104.866 347.646 104.866 350.952C104.866 353.145 104.52 355.258 103.891 357.243C106.286 356.31 108.883 355.777 111.607 355.777C114.333 355.777 116.93 356.31 119.324 357.243C118.696 355.258 118.35 353.145 118.35 350.952C118.35 347.646 119.142 344.529 120.518 341.755ZM175.619 341.755C172.935 343.095 169.915 343.867 166.71 343.867C163.505 343.867 160.485 343.095 157.799 341.755C159.175 344.529 159.967 347.646 159.967 350.952C159.967 353.145 159.623 355.258 158.993 357.243C161.387 356.31 163.984 355.777 166.71 355.777C169.434 355.777 172.031 356.31 174.427 357.243C173.797 355.258 173.453 353.145 173.453 350.952C173.453 347.646 174.245 344.529 175.619 341.755ZM230.722 341.755C228.036 343.095 225.018 343.867 221.811 343.867C218.606 343.867 215.588 343.095 212.902 341.755C214.276 344.529 215.07 347.646 215.07 350.952C215.07 353.145 214.724 355.258 214.094 357.243C216.49 356.31 219.087 355.777 221.811 355.777C224.537 355.777 227.134 356.31 229.53 357.243C228.9 355.258 228.554 353.145 228.554 350.952C228.554 347.646 229.348 344.529 230.722 341.755ZM285.823 341.755C283.139 343.095 280.119 343.867 276.914 343.867C273.707 343.867 270.689 343.095 268.003 341.755C269.379 344.529 270.171 347.646 270.171 350.952C270.171 353.145 269.827 355.258 269.197 357.243C271.591 356.31 274.188 355.777 276.914 355.777C279.64 355.777 282.237 356.31 284.631 357.243C284.001 355.258 283.657 353.145 283.657 350.952C283.657 347.646 284.449 344.529 285.823 341.755ZM340.926 341.755C338.24 343.095 335.222 343.867 332.015 343.867C328.81 343.867 325.79 343.095 323.106 341.755C324.48 344.529 325.272 347.646 325.272 350.952C325.272 353.145 324.928 355.258 324.298 357.243C326.694 356.31 329.291 355.777 332.015 355.777C334.741 355.777 337.338 356.31 339.734 357.243C339.104 355.258 338.758 353.145 338.758 350.952C338.758 347.646 339.552 344.529 340.926 341.755ZM396.028 341.755C393.343 343.095 390.323 343.867 387.118 343.867C383.912 343.867 380.893 343.095 378.207 341.755C379.583 344.529 380.375 347.646 380.375 350.952C380.375 353.145 380.031 355.258 379.401 357.243C381.795 356.31 384.392 355.777 387.118 355.777C389.844 355.777 392.439 356.31 394.834 357.243C394.205 355.258 393.861 353.145 393.861 350.952C393.861 347.646 394.653 344.529 396.028 341.755ZM451.129 341.755C448.444 343.095 445.426 343.867 442.219 343.867C439.013 343.867 435.995 343.095 433.31 341.755C434.684 344.529 435.476 347.646 435.476 350.952C435.476 353.145 435.132 355.258 434.502 357.243C436.898 356.31 439.494 355.777 442.219 355.777C444.945 355.777 447.542 356.31 449.935 357.243C449.307 355.258 448.962 353.145 448.962 350.952C448.962 347.646 449.756 344.529 451.129 341.755ZM506.23 341.755C503.547 343.095 500.527 343.867 497.322 343.867C494.116 343.867 491.096 343.095 488.411 341.755C489.786 344.529 490.579 347.646 490.579 350.952C490.579 353.145 490.235 355.258 489.605 357.243C491.999 356.31 494.595 355.777 497.322 355.777C500.048 355.777 502.642 356.31 505.038 357.243C504.408 355.258 504.064 353.145 504.064 350.952C504.064 347.646 504.857 344.529 506.23 341.755ZM561.333 341.755C558.648 343.095 555.63 343.867 552.423 343.867C549.217 343.867 546.199 343.095 543.514 341.755C544.887 344.529 545.681 347.646 545.681 350.952C545.681 353.145 545.336 355.258 544.706 357.243C547.102 356.31 549.698 355.777 552.423 355.777C555.149 355.777 557.745 356.31 560.139 357.243C559.511 355.258 559.165 353.145 559.165 350.952C559.165 347.646 559.96 344.529 561.333 341.755ZM616.436 341.755C613.751 343.095 610.731 343.867 607.525 343.867C604.32 343.867 601.3 343.095 598.615 341.755C599.99 344.529 600.782 347.646 600.782 350.952C600.782 353.145 600.438 355.258 599.809 357.243C602.202 356.31 604.799 355.777 607.525 355.777C610.25 355.777 612.846 356.31 615.242 357.243C614.612 355.258 614.268 353.145 614.268 350.952C614.268 347.646 615.06 344.529 616.436 341.755ZM671.537 341.755C668.851 343.095 665.834 343.867 662.626 343.867C659.421 343.867 656.403 343.095 653.717 341.755C655.091 344.529 655.885 347.646 655.885 350.952C655.885 353.145 655.539 355.258 654.91 357.243C657.305 356.31 659.902 355.777 662.626 355.777C665.352 355.777 667.949 356.31 670.345 357.243C669.715 355.258 669.369 353.145 669.369 350.952C669.369 347.646 670.163 344.529 671.537 341.755ZM28.955 371.749C26.3622 371.749 23.8891 371.254 21.6016 370.387C22.2913 372.482 22.6777 374.715 22.6777 377.04C22.6777 379.305 22.3164 381.483 21.6595 383.53C23.9432 382.713 26.3912 382.244 28.955 382.244C31.5189 382.244 33.9688 382.713 36.2506 383.53C35.5956 381.483 35.2324 379.305 35.2324 377.04C35.2324 374.715 35.6188 372.482 36.3105 370.387C34.021 371.254 31.5479 371.749 28.955 371.749ZM84.0579 382.244C86.6218 382.244 89.0697 382.713 91.3534 383.53C90.6965 381.483 90.3352 379.305 90.3352 377.04C90.3352 374.715 90.7216 372.482 91.4114 370.387C89.1219 371.254 86.6508 371.749 84.0579 371.749C81.4631 371.749 78.992 371.254 76.7025 370.387C77.3922 372.482 77.7806 374.715 77.7806 377.04C77.7806 379.305 77.4174 381.483 76.7624 383.53C79.0442 382.713 81.4921 382.244 84.0579 382.244ZM139.159 382.244C141.723 382.244 144.172 382.713 146.454 383.53C145.797 381.483 145.436 379.305 145.436 377.04C145.436 374.715 145.822 372.482 146.514 370.387C144.225 371.254 141.752 371.749 139.159 371.749C136.566 371.749 134.093 371.254 131.803 370.387C132.495 372.482 132.881 374.715 132.881 377.04C132.881 379.305 132.52 381.483 131.863 383.53C134.147 382.713 136.595 382.244 139.159 382.244ZM194.262 382.244C196.825 382.244 199.273 382.713 201.557 383.53C200.9 381.483 200.539 379.305 200.539 377.04C200.539 374.715 200.925 372.482 201.615 370.387C199.326 371.254 196.854 371.749 194.262 371.749C191.669 371.749 189.196 371.254 186.906 370.387C187.596 372.482 187.982 374.715 187.982 377.04C187.982 379.305 187.621 381.483 186.964 383.53C189.248 382.713 191.696 382.244 194.262 382.244ZM249.362 382.244C251.926 382.244 254.376 382.713 256.658 383.53C256.001 381.483 255.64 379.305 255.64 377.04C255.64 374.715 256.026 372.482 256.718 370.387C254.428 371.254 251.955 371.749 249.362 371.749C246.77 371.749 244.298 371.254 242.007 370.387C242.699 372.482 243.085 374.715 243.085 377.04C243.085 379.305 242.724 381.483 242.067 383.53C244.349 382.713 246.799 382.244 249.362 382.244ZM304.465 382.244C307.029 382.244 309.477 382.713 311.761 383.53C311.104 381.483 310.743 379.305 310.743 377.04C310.743 374.715 311.129 372.482 311.819 370.387C309.529 371.254 307.058 371.749 304.465 371.749C301.871 371.749 299.399 371.254 297.11 370.387C297.8 372.482 298.186 374.715 298.186 377.04C298.186 379.305 297.825 381.483 297.17 383.53C299.452 382.713 301.901 382.244 304.465 382.244ZM359.566 382.244C362.13 382.244 364.58 382.713 366.862 383.53C366.205 381.483 365.844 379.305 365.844 377.04C365.844 374.715 366.23 372.482 366.922 370.387C364.632 371.254 362.159 371.749 359.566 371.749C356.973 371.749 354.502 371.254 352.213 370.387C352.903 372.482 353.289 374.715 353.289 377.04C353.289 379.305 352.928 381.483 352.271 383.53C354.553 382.713 357.002 382.244 359.566 382.244ZM414.669 382.244C417.233 382.244 419.681 382.713 421.965 383.53C421.308 381.483 420.946 379.305 420.946 377.04C420.946 374.715 421.333 372.482 422.023 370.387C419.733 371.254 417.262 371.749 414.669 371.749C412.074 371.749 409.603 371.254 407.314 370.387C408.004 372.482 408.39 374.715 408.39 377.04C408.39 379.305 408.029 381.483 407.374 383.53C409.655 382.713 412.105 382.244 414.669 382.244ZM469.77 382.244C472.334 382.244 474.784 382.713 477.066 383.53C476.411 381.483 476.047 379.305 476.047 377.04C476.047 374.715 476.434 372.482 477.126 370.387C474.836 371.254 472.363 371.749 469.77 371.749C467.177 371.749 464.704 371.254 462.417 370.387C463.106 372.482 463.493 374.715 463.493 377.04C463.493 379.305 463.131 381.483 462.475 383.53C464.758 382.713 467.206 382.244 469.77 382.244ZM524.873 382.244C527.437 382.244 529.885 382.713 532.168 383.53C531.512 381.483 531.15 379.305 531.15 377.04C531.15 374.715 531.537 372.482 532.226 370.387C529.937 371.254 527.466 371.749 524.873 371.749C522.278 371.749 519.807 371.254 517.518 370.387C518.207 372.482 518.596 374.715 518.596 377.04C518.596 379.305 518.232 381.483 517.577 383.53C519.859 382.713 522.309 382.244 524.873 382.244ZM579.974 382.244C582.538 382.244 584.988 382.713 587.269 383.53C586.614 381.483 586.251 379.305 586.251 377.04C586.251 374.715 586.638 372.482 587.329 370.387C585.04 371.254 582.567 371.749 579.974 371.749C577.381 371.749 574.91 371.254 572.62 370.387C573.31 372.482 573.697 374.715 573.697 377.04C573.697 379.305 573.335 381.483 572.678 383.53C574.962 382.713 577.41 382.244 579.974 382.244ZM635.077 382.244C637.641 382.244 640.089 382.713 642.372 383.53C641.715 381.483 641.354 379.305 641.354 377.04C641.354 374.715 641.741 372.482 642.43 370.387C640.141 371.254 637.67 371.749 635.077 371.749C632.484 371.749 630.011 371.254 627.721 370.387C628.411 372.482 628.8 374.715 628.8 377.04C628.8 379.305 628.436 381.483 627.781 383.53C630.063 382.713 632.511 382.244 635.077 382.244ZM690.178 382.244C692.742 382.244 695.191 382.713 697.473 383.53C696.818 381.483 696.455 379.305 696.455 377.04C696.455 374.715 696.841 372.482 697.533 370.387C695.244 371.254 692.771 371.749 690.178 371.749C687.585 371.749 685.114 371.254 682.822 370.387C683.514 372.482 683.9 374.715 683.9 377.04C683.9 379.305 683.539 381.483 682.882 383.53C685.166 382.713 687.614 382.244 690.178 382.244ZM56.5065 407.982C58.7786 407.982 60.9696 408.325 63.0408 408.943C62.6466 407.314 62.4167 405.622 62.4167 403.871C62.4167 401.501 62.8109 399.229 63.5161 397.095C61.3174 397.863 58.966 398.302 56.5065 398.302C54.0469 398.302 51.6937 397.863 49.4969 397.095C50.2002 399.229 50.5963 401.501 50.5963 403.871C50.5963 405.622 50.3644 407.314 49.9722 408.943C52.0434 408.325 54.2344 407.982 56.5065 407.982ZM111.607 407.982C113.879 407.982 116.07 408.325 118.142 408.943C117.749 407.314 117.519 405.622 117.519 403.871C117.519 401.501 117.914 399.229 118.617 397.095C116.42 397.863 114.067 398.302 111.607 398.302C109.148 398.302 106.796 397.863 104.598 397.095C105.303 399.229 105.697 401.501 105.697 403.871C105.697 405.622 105.467 407.314 105.075 408.943C107.144 408.325 109.335 407.982 111.607 407.982ZM166.71 407.982C168.982 407.982 171.173 408.325 173.242 408.943C172.85 407.314 172.62 405.622 172.62 403.871C172.62 401.501 173.014 399.229 173.72 397.095C171.521 397.863 169.17 398.302 166.71 398.302C164.251 398.302 161.897 397.863 159.701 397.095C160.404 399.229 160.8 401.501 160.8 403.871C160.8 405.622 160.568 407.314 160.176 408.943C162.247 408.325 164.438 407.982 166.71 407.982ZM221.811 407.982C224.083 407.982 226.274 408.325 228.345 408.943C227.953 407.314 227.721 405.622 227.721 403.871C227.721 401.501 228.117 399.229 228.823 397.095C226.624 397.863 224.273 398.302 221.811 398.302C219.352 398.302 217 397.863 214.801 397.095C215.507 399.229 215.901 401.501 215.901 403.871C215.901 405.622 215.671 407.314 215.279 408.943C217.35 408.325 219.539 407.982 221.811 407.982ZM276.914 407.982C279.186 407.982 281.377 408.325 283.446 408.943C283.054 407.314 282.824 405.622 282.824 403.871C282.824 401.501 283.218 399.229 283.923 397.095C281.725 397.863 279.373 398.302 276.914 398.302C274.454 398.302 272.101 397.863 269.904 397.095C270.608 399.229 271.004 401.501 271.004 403.871C271.004 405.622 270.772 407.314 270.38 408.943C272.451 408.325 274.642 407.982 276.914 407.982ZM332.015 407.982C334.287 407.982 336.478 408.325 338.549 408.943C338.157 407.314 337.927 405.622 337.927 403.871C337.927 401.501 338.321 399.229 339.024 397.095C336.828 397.863 334.476 398.302 332.015 398.302C329.555 398.302 327.204 397.863 325.005 397.095C325.71 399.229 326.105 401.501 326.105 403.871C326.105 405.622 325.875 407.314 325.483 408.943C327.554 408.325 329.743 407.982 332.015 407.982ZM387.118 407.982C389.39 407.982 391.581 408.325 393.652 408.943C393.258 407.314 393.028 405.622 393.028 403.871C393.028 401.501 393.422 399.229 394.127 397.095C391.929 397.863 389.577 398.302 387.118 398.302C384.658 398.302 382.305 397.863 380.108 397.095C380.813 399.229 381.208 401.501 381.208 403.871C381.208 405.622 380.976 407.314 380.583 408.943C382.655 408.325 384.846 407.982 387.118 407.982ZM442.219 407.982C444.493 407.982 446.682 408.325 448.753 408.943C448.361 407.314 448.131 405.622 448.131 403.871C448.131 401.501 448.525 399.229 449.228 397.095C447.031 397.863 444.678 398.302 442.219 398.302C439.759 398.302 437.408 397.863 435.209 397.095C435.914 399.229 436.308 401.501 436.308 403.871C436.308 405.622 436.079 407.314 435.686 408.943C437.757 408.325 439.947 407.982 442.219 407.982ZM497.322 407.982C499.594 407.982 501.785 408.325 503.856 408.943C503.462 407.314 503.232 405.622 503.232 403.871C503.232 401.501 503.626 399.229 504.331 397.095C502.132 397.863 499.781 398.302 497.322 398.302C494.862 398.302 492.509 397.863 490.312 397.095C491.015 399.229 491.411 401.501 491.411 403.871C491.411 405.622 491.179 407.314 490.787 408.943C492.858 408.325 495.049 407.982 497.322 407.982ZM552.423 407.982C554.697 407.982 556.886 408.325 558.957 408.943C558.565 407.314 558.335 405.622 558.335 403.871C558.335 401.501 558.729 399.229 559.432 397.095C557.235 397.863 554.882 398.302 552.423 398.302C549.963 398.302 547.612 397.863 545.413 397.095C546.118 399.229 546.512 401.501 546.512 403.871C546.512 405.622 546.282 407.314 545.89 408.943C547.961 408.325 550.15 407.982 552.423 407.982ZM614.06 408.943C613.665 407.314 613.436 405.622 613.436 403.871C613.436 401.501 613.83 399.229 614.535 397.095C612.336 397.863 609.985 398.302 607.525 398.302C605.066 398.302 602.713 397.863 600.516 397.095C601.219 399.229 601.615 401.501 601.615 403.871C601.615 405.622 601.383 407.314 600.991 408.943C603.062 408.325 605.253 407.982 607.525 407.982C609.797 407.982 611.988 408.325 614.06 408.943ZM662.626 407.982C664.9 407.982 667.089 408.325 669.161 408.943C668.768 407.314 668.538 405.622 668.538 403.871C668.538 401.501 668.933 399.229 669.638 397.095C667.439 397.863 665.088 398.302 662.626 398.302C660.167 398.302 657.815 397.863 655.617 397.095C656.322 399.229 656.716 401.501 656.716 403.871C656.716 405.622 656.486 407.314 656.094 408.943C658.165 408.325 660.354 407.982 662.626 407.982ZM34.5465 424.745C32.7593 425.222 30.8929 425.5 28.955 425.5C27.0191 425.5 25.1508 425.222 23.3636 424.745C23.8891 426.662 24.1925 428.672 24.1925 430.758C24.1925 432.256 24.0398 433.716 23.7635 435.131C25.4348 434.747 27.1679 434.525 28.955 434.525C30.7441 434.525 32.4753 434.747 34.1465 435.131C33.8703 433.716 33.7176 432.256 33.7176 430.758C33.7176 428.672 34.021 426.662 34.5465 424.745ZM84.0579 434.525C85.8451 434.525 87.5782 434.747 89.2494 435.131C88.9731 433.716 88.8186 432.256 88.8186 430.758C88.8186 428.672 89.1238 426.662 89.6494 424.745C87.8622 425.222 85.9939 425.5 84.0579 425.5C82.12 425.5 80.2517 425.222 78.4665 424.745C78.9901 426.662 79.2953 428.672 79.2953 430.758C79.2953 432.256 79.1408 433.716 78.8664 435.131C80.5377 434.747 82.2688 434.525 84.0579 434.525ZM139.159 434.525C140.948 434.525 142.679 434.747 144.35 435.131C144.074 433.716 143.921 432.256 143.921 430.758C143.921 428.672 144.225 426.662 144.75 424.745C142.965 425.222 141.097 425.5 139.159 425.5C137.223 425.5 135.354 425.222 133.567 424.745C134.093 426.662 134.396 428.672 134.396 430.758C134.396 432.256 134.243 433.716 133.967 435.131C135.638 434.747 137.371 434.525 139.159 434.525ZM194.262 434.525C196.049 434.525 197.782 434.747 199.453 435.131C199.177 433.716 199.022 432.256 199.022 430.758C199.022 428.672 199.327 426.662 199.851 424.745C198.066 425.222 196.197 425.5 194.262 425.5C192.324 425.5 190.455 425.222 188.67 424.745C189.196 426.662 189.499 428.672 189.499 430.758C189.499 432.256 189.344 433.716 189.068 435.131C190.741 434.747 192.472 434.525 194.262 434.525ZM249.362 434.525C251.15 434.525 252.883 434.747 254.554 435.131C254.28 433.716 254.125 432.256 254.125 430.758C254.125 428.672 254.428 426.662 254.954 424.745C253.167 425.222 251.3 425.5 249.362 425.5C247.425 425.5 245.558 425.222 243.771 424.745C244.297 426.662 244.602 428.672 244.602 430.758C244.602 432.256 244.447 433.716 244.171 435.131C245.842 434.747 247.575 434.525 249.362 434.525ZM304.465 434.525C306.253 434.525 307.986 434.747 309.657 435.131C309.381 433.716 309.226 432.256 309.226 430.758C309.226 428.672 309.531 426.662 310.055 424.745C308.27 425.222 306.401 425.5 304.465 425.5C302.527 425.5 300.659 425.222 298.874 424.745C299.399 426.662 299.703 428.672 299.703 430.758C299.703 432.256 299.548 433.716 299.272 435.131C300.945 434.747 302.676 434.525 304.465 434.525ZM359.566 434.525C361.353 434.525 363.087 434.747 364.758 435.131C364.481 433.716 364.329 432.256 364.329 430.758C364.329 428.672 364.632 426.662 365.158 424.745C363.371 425.222 361.504 425.5 359.566 425.5C357.63 425.5 355.762 425.222 353.975 424.745C354.5 426.662 354.806 428.672 354.806 430.758C354.806 432.256 354.651 433.716 354.375 435.131C356.046 434.747 357.779 434.525 359.566 434.525ZM414.669 434.525C416.456 434.525 418.189 434.747 419.861 435.131C419.584 433.716 419.43 432.256 419.43 430.758C419.43 428.672 419.735 426.662 420.261 424.745C418.473 425.222 416.605 425.5 414.669 425.5C412.731 425.5 410.863 425.222 409.078 424.745C409.603 426.662 409.907 428.672 409.907 430.758C409.907 432.256 409.752 433.716 409.476 435.131C411.147 434.747 412.88 434.525 414.669 434.525ZM469.77 434.525C471.559 434.525 473.29 434.747 474.962 435.131C474.685 433.716 474.533 432.256 474.533 430.758C474.533 428.672 474.836 426.662 475.362 424.745C473.574 425.222 471.708 425.5 469.77 425.5C467.834 425.5 465.966 425.222 464.179 424.745C464.704 426.662 465.008 428.672 465.008 430.758C465.008 432.256 464.855 433.716 464.579 435.131C466.25 434.747 467.983 434.525 469.77 434.525ZM524.873 434.525C526.66 434.525 528.393 434.747 530.064 435.131C529.788 433.716 529.634 432.256 529.634 430.758C529.634 428.672 529.939 426.662 530.464 424.745C528.677 425.222 526.809 425.5 524.873 425.5C522.935 425.5 521.067 425.222 519.282 424.745C519.807 426.662 520.11 428.672 520.11 430.758C520.11 432.256 519.956 433.716 519.681 435.131C521.353 434.747 523.084 434.525 524.873 434.525ZM579.974 434.525C581.763 434.525 583.494 434.747 585.165 435.131C584.891 433.716 584.736 432.256 584.736 430.758C584.736 428.672 585.04 426.662 585.565 424.745C583.78 425.222 581.912 425.5 579.974 425.5C578.038 425.5 576.17 425.222 574.382 424.745C574.908 426.662 575.211 428.672 575.211 430.758C575.211 432.256 575.059 433.716 574.782 435.131C576.454 434.747 578.187 434.525 579.974 434.525ZM635.077 434.525C636.864 434.525 638.597 434.747 640.268 435.131C639.992 433.716 639.837 432.256 639.837 430.758C639.837 428.672 640.143 426.662 640.668 424.745C638.881 425.222 637.013 425.5 635.077 425.5C633.139 425.5 631.271 425.222 629.485 424.745C630.011 426.662 630.314 428.672 630.314 430.758C630.314 432.256 630.16 433.716 629.885 435.131C631.557 434.747 633.288 434.525 635.077 434.525ZM690.178 434.525C691.967 434.525 693.698 434.747 695.369 435.131C695.095 433.716 694.94 432.256 694.94 430.758C694.94 428.672 695.244 426.662 695.769 424.745C693.982 425.222 692.116 425.5 690.178 425.5C688.242 425.5 686.373 425.222 684.586 424.745C685.112 426.662 685.417 428.672 685.417 430.758C685.417 432.256 685.263 433.716 684.986 435.131C686.657 434.747 688.391 434.525 690.178 434.525ZM56.5065 460.478C58.1178 460.478 59.6925 460.642 61.215 460.951C61.0565 459.862 60.9483 458.755 60.9483 457.622C60.9483 456.036 61.1087 454.488 61.414 452.991C59.8316 453.339 58.1932 453.534 56.5065 453.534C54.8198 453.534 53.1814 453.339 51.599 452.991C51.9043 454.488 52.0646 456.036 52.0646 457.622C52.0646 458.755 51.9564 459.862 51.798 460.951C53.3186 460.642 54.8932 460.478 56.5065 460.478ZM111.607 460.478C113.221 460.478 114.795 460.642 116.316 460.951C116.159 459.862 116.049 458.755 116.049 457.622C116.049 456.036 116.209 454.488 116.515 452.991C114.932 453.339 113.294 453.534 111.607 453.534C109.921 453.534 108.282 453.339 106.702 452.991C107.005 454.488 107.167 456.036 107.167 457.622C107.167 458.755 107.057 459.862 106.899 460.951C108.421 460.642 109.996 460.478 111.607 460.478ZM166.71 460.478C168.323 460.478 169.896 460.642 171.419 460.951C171.26 459.862 171.152 458.755 171.152 457.622C171.152 456.036 171.312 454.488 171.618 452.991C170.035 453.339 168.397 453.534 166.71 453.534C165.023 453.534 163.385 453.339 161.803 452.991C162.108 454.488 162.268 456.036 162.268 457.622C162.268 458.755 162.16 459.862 162.002 460.951C163.522 460.642 165.097 460.478 166.71 460.478ZM221.811 460.478C223.424 460.478 224.999 460.642 226.52 460.951C226.363 459.862 226.253 458.755 226.253 457.622C226.253 456.036 226.413 454.488 226.719 452.991C225.136 453.339 223.498 453.534 221.811 453.534C220.126 453.534 218.486 453.339 216.905 452.991C217.209 454.488 217.371 456.036 217.371 457.622C217.371 458.755 217.261 459.862 217.103 460.951C218.625 460.642 220.2 460.478 221.811 460.478ZM276.914 460.478C278.527 460.478 280.102 460.642 281.622 460.951C281.464 459.862 281.356 458.755 281.356 457.622C281.356 456.036 281.516 454.488 281.821 452.991C280.239 453.339 278.601 453.534 276.914 453.534C275.227 453.534 273.589 453.339 272.006 452.991C272.312 454.488 272.472 456.036 272.472 457.622C272.472 458.755 272.364 459.862 272.205 460.951C273.726 460.642 275.301 460.478 276.914 460.478ZM332.015 460.478C333.628 460.478 335.203 460.642 336.723 460.951C336.567 459.862 336.457 458.755 336.457 457.622C336.457 456.036 336.619 454.488 336.922 452.991C335.34 453.339 333.702 453.534 332.015 453.534C330.33 453.534 328.69 453.339 327.109 452.991C327.413 454.488 327.575 456.036 327.575 457.622C327.575 458.755 327.465 459.862 327.306 460.951C328.829 460.642 330.403 460.478 332.015 460.478ZM387.118 460.478C388.731 460.478 390.306 460.642 391.826 460.951C391.668 459.862 391.56 458.755 391.56 457.622C391.56 456.036 391.72 454.488 392.025 452.991C390.443 453.339 388.804 453.534 387.118 453.534C385.431 453.534 383.793 453.339 382.21 452.991C382.516 454.488 382.676 456.036 382.676 457.622C382.676 458.755 382.568 459.862 382.409 460.951C383.93 460.642 385.504 460.478 387.118 460.478ZM442.219 460.478C443.832 460.478 445.407 460.642 446.927 460.951C446.771 459.862 446.661 458.755 446.661 457.622C446.661 456.036 446.823 454.488 447.126 452.991C445.544 453.339 443.905 453.534 442.219 453.534C440.534 453.534 438.895 453.339 437.313 452.991C437.616 454.488 437.779 456.036 437.779 457.622C437.779 458.755 437.669 459.862 437.51 460.951C439.033 460.642 440.607 460.478 442.219 460.478ZM497.322 460.478C498.935 460.478 500.509 460.642 502.03 460.951C501.872 459.862 501.763 458.755 501.763 457.622C501.763 456.036 501.924 454.488 502.229 452.991C500.647 453.339 499.008 453.534 497.322 453.534C495.635 453.534 493.996 453.339 492.414 452.991C492.719 454.488 492.88 456.036 492.88 457.622C492.88 458.755 492.771 459.862 492.613 460.951C494.134 460.642 495.708 460.478 497.322 460.478ZM552.422 460.478C554.036 460.478 555.61 460.642 557.131 460.951C556.974 459.862 556.864 458.755 556.864 457.622C556.864 456.036 557.027 454.488 557.33 452.991C555.748 453.339 554.109 453.534 552.422 453.534C550.736 453.534 549.097 453.339 547.517 452.991C547.82 454.488 547.983 456.036 547.983 457.622C547.983 458.755 547.872 459.862 547.714 460.951C549.236 460.642 550.811 460.478 552.422 460.478ZM607.525 460.478C609.139 460.478 610.713 460.642 612.234 460.951C612.075 459.862 611.967 458.755 611.967 457.622C611.967 456.036 612.128 454.488 612.433 452.991C610.85 453.339 609.212 453.534 607.525 453.534C605.839 453.534 604.2 453.339 602.618 452.991C602.923 454.488 603.084 456.036 603.084 457.622C603.084 458.755 602.975 459.862 602.817 460.951C604.337 460.642 605.912 460.478 607.525 460.478ZM662.626 460.478C664.24 460.478 665.814 460.642 667.335 460.951C667.178 459.862 667.068 458.755 667.068 457.622C667.068 456.036 667.23 454.488 667.534 452.991C665.951 453.339 664.313 453.534 662.626 453.534C660.941 453.534 659.301 453.339 657.721 452.991C658.024 454.488 658.186 456.036 658.186 457.622C658.186 458.755 658.076 459.862 657.918 460.951C659.44 460.642 661.015 460.478 662.626 460.478ZM79.5658 487.755C81.0207 487.473 82.52 487.315 84.0579 487.315C85.5939 487.315 87.0932 487.473 88.5481 487.755C88.3375 486.49 88.2003 485.198 88.2003 483.872C88.2003 482.647 88.322 481.454 88.5036 480.282C87.0642 480.562 85.5785 480.718 84.0579 480.718C82.5354 480.718 81.0497 480.562 79.6103 480.282C79.7919 481.454 79.9136 482.647 79.9136 483.872C79.9136 485.198 79.7764 486.49 79.5658 487.755ZM134.667 487.755C136.121 487.473 137.621 487.315 139.159 487.315C140.697 487.315 142.196 487.473 143.651 487.755C143.438 486.49 143.301 485.198 143.301 483.872C143.301 482.647 143.425 481.454 143.606 480.282C142.165 480.562 140.681 480.718 139.159 480.718C137.636 480.718 136.152 480.562 134.711 480.282C134.893 481.454 135.016 482.647 135.016 483.872C135.016 485.198 134.879 486.49 134.667 487.755ZM189.769 487.755C191.224 487.473 192.724 487.315 194.262 487.315C195.798 487.315 197.297 487.473 198.754 487.755C198.541 486.49 198.404 485.198 198.404 483.872C198.404 482.647 198.526 481.454 198.707 480.282C197.268 480.562 195.782 480.718 194.262 480.718C192.739 480.718 191.253 480.562 189.814 480.282C189.996 481.454 190.117 482.647 190.117 483.872C190.117 485.198 189.982 486.49 189.769 487.755ZM244.87 487.755C246.325 487.473 247.825 487.315 249.362 487.315C250.9 487.315 252.4 487.473 253.855 487.755C253.642 486.49 253.505 485.198 253.505 483.872C253.505 482.647 253.629 481.454 253.81 480.282C252.371 480.562 250.885 480.718 249.362 480.718C247.84 480.718 246.356 480.562 244.915 480.282C245.096 481.454 245.22 482.647 245.22 483.872C245.22 485.198 245.083 486.49 244.87 487.755ZM299.973 487.755C301.428 487.473 302.927 487.315 304.465 487.315C306.001 487.315 307.501 487.473 308.955 487.755C308.745 486.49 308.608 485.198 308.608 483.872C308.608 482.647 308.729 481.454 308.911 480.282C307.472 480.562 305.986 480.718 304.465 480.718C302.943 480.718 301.457 480.562 300.018 480.282C300.199 481.454 300.321 482.647 300.321 483.872C300.321 485.198 300.186 486.49 299.973 487.755ZM355.074 487.755C356.529 487.473 358.028 487.315 359.566 487.315C361.104 487.315 362.604 487.473 364.058 487.755C363.846 486.49 363.709 485.198 363.709 483.872C363.709 482.647 363.832 481.454 364.014 480.282C362.575 480.562 361.089 480.718 359.566 480.718C358.044 480.718 356.56 480.562 355.119 480.282C355.3 481.454 355.424 482.647 355.424 483.872C355.424 485.198 355.287 486.49 355.074 487.755ZM410.177 487.755C411.632 487.473 413.131 487.315 414.669 487.315C416.205 487.315 417.704 487.473 419.159 487.755C418.949 486.49 418.812 485.198 418.812 483.872C418.812 482.647 418.933 481.454 419.115 480.282C417.675 480.562 416.192 480.718 414.669 480.718C413.147 480.718 411.661 480.562 410.222 480.282C410.403 481.454 410.525 482.647 410.525 483.872C410.525 485.198 410.39 486.49 410.177 487.755ZM465.278 487.755C466.733 487.473 468.232 487.315 469.77 487.315C471.308 487.315 472.807 487.473 474.262 487.755C474.05 486.49 473.914 485.198 473.914 483.872C473.914 482.647 474.036 481.454 474.218 480.282C472.778 480.562 471.293 480.718 469.77 480.718C468.248 480.718 466.764 480.562 465.322 480.282C465.504 481.454 465.628 482.647 465.628 483.872C465.628 485.198 465.491 486.49 465.278 487.755ZM520.381 487.755C521.836 487.473 523.335 487.315 524.873 487.315C526.409 487.315 527.908 487.473 529.363 487.755C529.152 486.49 529.015 485.198 529.015 483.872C529.015 482.647 529.139 481.454 529.319 480.282C527.879 480.562 526.395 480.718 524.873 480.718C523.35 480.718 521.865 480.562 520.425 480.282C520.607 481.454 520.729 482.647 520.729 483.872C520.729 485.198 520.593 486.49 520.381 487.755ZM575.482 487.755C576.937 487.473 578.436 487.315 579.974 487.315C581.512 487.315 583.011 487.473 584.466 487.755C584.253 486.49 584.118 485.198 584.118 483.872C584.118 482.647 584.24 481.454 584.422 480.282C582.98 480.562 581.496 480.718 579.974 480.718C578.451 480.718 576.968 480.562 575.526 480.282C575.708 481.454 575.832 482.647 575.832 483.872C575.832 485.198 575.694 486.49 575.482 487.755ZM630.585 487.755C632.04 487.473 633.539 487.315 635.077 487.315C636.613 487.315 638.112 487.473 639.569 487.755C639.356 486.49 639.219 485.198 639.219 483.872C639.219 482.647 639.343 481.454 639.523 480.282C638.083 480.562 636.599 480.718 635.077 480.718C633.554 480.718 632.069 480.562 630.629 480.282C630.811 481.454 630.933 482.647 630.933 483.872C630.933 485.198 630.797 486.49 630.585 487.755ZM56.5065 511.518C57.9285 511.518 59.3138 511.664 60.672 511.89C60.6527 511.508 60.6141 511.131 60.6141 510.745C60.6141 509.409 60.7513 508.105 60.9676 506.831C59.5225 507.109 58.0328 507.267 56.5065 507.267C54.9782 507.267 53.4905 507.109 52.0453 506.831C52.2598 508.105 52.3989 509.409 52.3989 510.745C52.3989 511.131 52.3583 511.508 52.3409 511.89C53.6972 511.664 55.0845 511.518 56.5065 511.518ZM111.607 511.518C113.031 511.518 114.416 511.664 115.775 511.89C115.755 511.508 115.717 511.131 115.717 510.745C115.717 509.409 115.854 508.105 116.068 506.831C114.623 507.109 113.135 507.267 111.607 507.267C110.081 507.267 108.593 507.109 107.146 506.831C107.362 508.105 107.5 509.409 107.5 510.745C107.5 511.131 107.461 511.508 107.442 511.89C108.8 511.664 110.185 511.518 111.607 511.518ZM166.71 511.518C168.132 511.518 169.517 511.664 170.876 511.89C170.858 511.508 170.818 511.131 170.818 510.745C170.818 509.409 170.955 508.105 171.171 506.831C169.726 507.109 168.236 507.267 166.71 507.267C165.184 507.267 163.694 507.109 162.249 506.831C162.463 508.105 162.602 509.409 162.602 510.745C162.602 511.131 162.562 511.508 162.545 511.89C163.901 511.664 165.288 511.518 166.71 511.518ZM221.811 511.518C223.233 511.518 224.62 511.664 225.979 511.89C225.959 511.508 225.921 511.131 225.921 510.745C225.921 509.409 226.058 508.105 226.272 506.831C224.827 507.109 223.339 507.267 221.811 507.267C220.285 507.267 218.797 507.109 217.352 506.831C217.566 508.105 217.703 509.409 217.703 510.745C217.703 511.131 217.665 511.508 217.645 511.89C219.004 511.664 220.389 511.518 221.811 511.518ZM276.914 511.518C278.336 511.518 279.721 511.664 281.079 511.89C281.062 511.508 281.022 511.131 281.022 510.745C281.022 509.409 281.159 508.105 281.375 506.831C279.93 507.109 278.44 507.267 276.914 507.267C275.388 507.267 273.898 507.109 272.453 506.831C272.667 508.105 272.806 509.409 272.806 510.745C272.806 511.131 272.766 511.508 272.748 511.89C274.107 511.664 275.492 511.518 276.914 511.518ZM332.015 511.518C333.439 511.518 334.824 511.664 336.18 511.89C336.163 511.508 336.124 511.131 336.124 510.745C336.124 509.409 336.262 508.105 336.476 506.831C335.031 507.109 333.543 507.267 332.015 507.267C330.489 507.267 329.001 507.109 327.556 506.831C327.77 508.105 327.907 509.409 327.907 510.745C327.907 511.131 327.869 511.508 327.849 511.89C329.208 511.664 330.593 511.518 332.015 511.518ZM387.118 511.518C388.54 511.518 389.925 511.664 391.283 511.89C391.264 511.508 391.225 511.131 391.225 510.745C391.225 509.409 391.362 508.105 391.579 506.831C390.134 507.109 388.644 507.267 387.118 507.267C385.591 507.267 384.102 507.109 382.657 506.831C382.871 508.105 383.01 509.409 383.01 510.745C383.01 511.131 382.97 511.508 382.952 511.89C384.31 511.664 385.696 511.518 387.118 511.518ZM442.219 511.518C443.643 511.518 445.028 511.664 446.384 511.89C446.367 511.508 446.328 511.131 446.328 510.745C446.328 509.409 446.465 508.105 446.68 506.831C445.235 507.109 443.747 507.267 442.219 507.267C440.692 507.267 439.205 507.109 437.759 506.831C437.974 508.105 438.111 509.409 438.111 510.745C438.111 511.131 438.072 511.508 438.053 511.89C439.411 511.664 440.797 511.518 442.219 511.518ZM497.322 511.518C498.744 511.518 500.129 511.664 501.487 511.89C501.468 511.508 501.429 511.131 501.429 510.745C501.429 509.409 501.568 508.105 501.783 506.831C500.338 507.109 498.848 507.267 497.322 507.267C495.795 507.267 494.306 507.109 492.86 506.831C493.075 508.105 493.214 509.409 493.214 510.745C493.214 511.131 493.173 511.508 493.156 511.89C494.514 511.664 495.9 511.518 497.322 511.518ZM552.423 511.518C553.846 511.518 555.232 511.664 556.59 511.89C556.571 511.508 556.532 511.131 556.532 510.745C556.532 509.409 556.669 508.105 556.884 506.831C555.438 507.109 553.951 507.267 552.423 507.267C550.896 507.267 549.408 507.109 547.961 506.831C548.178 508.105 548.315 509.409 548.315 510.745C548.315 511.131 548.276 511.508 548.257 511.89C549.615 511.664 551.001 511.518 552.423 511.518ZM607.525 511.518C608.947 511.518 610.333 511.664 611.691 511.89C611.673 511.508 611.633 511.131 611.633 510.745C611.633 509.409 611.77 508.105 611.987 506.831C610.541 507.109 609.052 507.267 607.525 507.267C605.999 507.267 604.509 507.109 603.064 506.831C603.279 508.105 603.418 509.409 603.418 510.745C603.418 511.131 603.377 511.508 603.36 511.89C604.718 511.664 606.103 511.518 607.525 511.518ZM662.626 511.518C664.05 511.518 665.436 511.664 666.794 511.89C666.774 511.508 666.736 511.131 666.736 510.745C666.736 509.409 666.873 508.105 667.087 506.831C665.642 507.109 664.155 507.267 662.626 507.267C661.1 507.267 659.612 507.109 658.167 506.831C658.382 508.105 658.519 509.409 658.519 510.745C658.519 511.131 658.48 511.508 658.461 511.89C659.819 511.664 661.204 511.518 662.626 511.518ZM84.0579 538.215C84.8887 538.215 85.7079 538.262 86.5194 538.339C86.4827 537.787 86.4344 537.238 86.4344 536.676C86.4344 535.784 86.4846 534.904 86.5754 534.035C85.7485 534.124 84.908 534.174 84.0579 534.174C83.2059 534.174 82.3674 534.124 81.5385 534.035C81.6293 534.904 81.6795 535.784 81.6795 536.676C81.6795 537.238 81.6312 537.787 81.5945 538.339C82.406 538.262 83.2271 538.215 84.0579 538.215ZM139.159 538.215C139.989 538.215 140.811 538.262 141.62 538.339C141.583 537.787 141.537 537.238 141.537 536.676C141.537 535.784 141.587 534.904 141.678 534.035C140.849 534.124 140.011 534.174 139.159 534.174C138.307 534.174 137.468 534.124 136.641 534.035C136.73 534.904 136.78 535.784 136.78 536.676C136.78 537.238 136.734 537.787 136.697 538.339C137.509 538.262 138.328 538.215 139.159 538.215ZM194.262 538.215C195.092 538.215 195.912 538.262 196.723 538.339C196.686 537.787 196.638 537.238 196.638 536.676C196.638 535.784 196.688 534.904 196.779 534.035C195.952 534.124 195.112 534.174 194.262 534.174C193.409 534.174 192.571 534.124 191.742 534.035C191.833 534.904 191.883 535.784 191.883 536.676C191.883 537.238 191.835 537.787 191.798 538.339C192.61 538.262 193.429 538.215 194.262 538.215ZM249.362 538.215C250.193 538.215 251.014 538.262 251.824 538.339C251.787 537.787 251.741 537.238 251.741 536.676C251.741 535.784 251.791 534.904 251.882 534.035C251.053 534.124 250.215 534.174 249.362 534.174C248.51 534.174 247.672 534.124 246.845 534.035C246.936 534.904 246.984 535.784 246.984 536.676C246.984 537.238 246.938 537.787 246.901 538.339C247.712 538.262 248.532 538.215 249.362 538.215ZM304.465 538.215C305.296 538.215 306.115 538.262 306.927 538.339C306.89 537.787 306.842 537.238 306.842 536.676C306.842 535.784 306.892 534.904 306.983 534.035C306.156 534.124 305.315 534.174 304.465 534.174C303.613 534.174 302.775 534.124 301.946 534.035C302.037 534.904 302.087 535.784 302.087 536.676C302.087 537.238 302.039 537.787 302.002 538.339C302.813 538.262 303.633 538.215 304.465 538.215ZM359.566 538.215C360.397 538.215 361.218 538.262 362.028 538.339C361.993 537.787 361.945 537.238 361.945 536.676C361.945 535.784 361.995 534.904 362.086 534.035C361.257 534.124 360.418 534.174 359.566 534.174C358.716 534.174 357.876 534.124 357.049 534.035C357.14 534.904 357.188 535.784 357.188 536.676C357.188 537.238 357.142 537.787 357.105 538.339C357.916 538.262 358.735 538.215 359.566 538.215ZM414.669 538.215C415.5 538.215 416.319 538.262 417.131 538.339C417.094 537.787 417.046 537.238 417.046 536.676C417.046 535.784 417.096 534.904 417.187 534.035C416.358 534.124 415.519 534.174 414.669 534.174C413.817 534.174 412.979 534.124 412.15 534.035C412.241 534.904 412.291 535.784 412.291 536.676C412.291 537.238 412.242 537.787 412.208 538.339C413.017 538.262 413.838 538.215 414.669 538.215ZM469.77 538.215C470.601 538.215 471.422 538.262 472.232 538.339C472.197 537.787 472.148 537.238 472.148 536.676C472.148 535.784 472.199 534.904 472.29 534.035C471.461 534.124 470.622 534.174 469.77 534.174C468.92 534.174 468.08 534.124 467.253 534.035C467.343 534.904 467.394 535.784 467.394 536.676C467.394 537.238 467.345 537.787 467.309 538.339C468.12 538.262 468.939 538.215 469.77 538.215ZM524.873 538.215C525.704 538.215 526.523 538.262 527.334 538.339C527.298 537.787 527.249 537.238 527.249 536.676C527.249 535.784 527.3 534.904 527.39 534.035C526.564 534.124 525.723 534.174 524.873 534.174C524.021 534.174 523.182 534.124 522.354 534.035C522.444 534.904 522.495 535.784 522.495 536.676C522.495 537.238 522.446 537.787 522.412 538.339C523.221 538.262 524.042 538.215 524.873 538.215ZM579.974 538.215C580.805 538.215 581.626 538.262 582.435 538.339C582.401 537.787 582.352 537.238 582.352 536.676C582.352 535.784 582.403 534.904 582.493 534.035C581.665 534.124 580.826 534.174 579.974 534.174C579.124 534.174 578.283 534.124 577.456 534.035C577.547 534.904 577.596 535.784 577.596 536.676C577.596 537.238 577.549 537.787 577.512 538.339C578.324 538.262 579.143 538.215 579.974 538.215ZM635.077 538.215C635.908 538.215 636.727 538.262 637.538 538.339C637.502 537.787 637.453 537.238 637.453 536.676C637.453 535.784 637.504 534.904 637.594 534.035C636.767 534.124 635.927 534.174 635.077 534.174C634.225 534.174 633.386 534.124 632.557 534.035C632.648 534.904 632.698 535.784 632.698 536.676C632.698 537.238 632.65 537.787 632.615 538.339C633.425 538.262 634.246 538.215 635.077 538.215ZM111.607 563.39C112.283 563.39 112.946 563.44 113.609 563.49C113.615 562.897 113.651 562.312 113.698 561.731C113.006 561.787 112.314 561.835 111.607 561.835C110.902 561.835 110.208 561.787 109.519 561.731C109.565 562.312 109.6 562.897 109.608 563.49C110.27 563.44 110.933 563.39 111.607 563.39ZM166.71 563.39C167.384 563.39 168.047 563.44 168.71 563.49C168.718 562.897 168.754 562.312 168.799 561.731C168.109 561.787 167.415 561.835 166.71 561.835C166.005 561.835 165.311 561.787 164.62 561.731C164.666 562.312 164.703 562.897 164.708 563.49C165.371 563.44 166.034 563.39 166.71 563.39ZM221.811 563.39C222.487 563.39 223.15 563.44 223.813 563.49C223.818 562.897 223.855 562.312 223.902 561.731C223.21 561.787 222.516 561.835 221.811 561.835C221.106 561.835 220.412 561.787 219.722 561.731C219.767 562.312 219.806 562.897 219.811 563.49C220.474 563.44 221.137 563.39 221.811 563.39ZM276.914 563.39C277.588 563.39 278.253 563.44 278.914 563.49C278.921 562.897 278.958 562.312 279.002 561.731C278.313 561.787 277.619 561.835 276.914 561.835C276.209 561.835 275.515 561.787 274.823 561.731C274.87 562.312 274.906 562.897 274.912 563.49C275.575 563.44 276.238 563.39 276.914 563.39ZM332.015 563.39C332.691 563.39 333.354 563.44 334.017 563.49C334.022 562.897 334.059 562.312 334.105 561.731C333.414 561.787 332.72 561.835 332.015 561.835C331.31 561.835 330.616 561.787 329.926 561.731C329.973 562.312 330.009 562.897 330.015 563.49C330.678 563.44 331.341 563.39 332.015 563.39ZM387.118 563.39C387.794 563.39 388.457 563.44 389.117 563.49C389.125 562.897 389.162 562.312 389.206 561.731C388.517 561.787 387.823 561.835 387.118 561.835C386.413 561.835 385.719 561.787 385.027 561.731C385.074 562.312 385.11 562.897 385.116 563.49C385.779 563.44 386.441 563.39 387.118 563.39ZM442.219 563.39C442.895 563.39 443.558 563.44 444.22 563.49C444.226 562.897 444.263 562.312 444.309 561.731C443.617 561.787 442.924 561.835 442.219 561.835C441.513 561.835 440.82 561.787 440.13 561.731C440.176 562.312 440.213 562.897 440.219 563.49C440.882 563.44 441.544 563.39 442.219 563.39ZM497.322 563.39C497.998 563.39 498.66 563.44 499.321 563.49C499.329 562.897 499.366 562.312 499.41 561.731C498.72 561.787 498.027 561.835 497.322 561.835C496.616 561.835 495.923 561.787 495.231 561.731C495.277 562.312 495.314 562.897 495.32 563.49C495.983 563.44 496.645 563.39 497.322 563.39ZM552.422 563.39C553.099 563.39 553.761 563.44 554.424 563.49C554.43 562.897 554.467 562.312 554.513 561.731C553.821 561.787 553.13 561.835 552.422 561.835C551.717 561.835 551.024 561.787 550.334 561.731C550.38 562.312 550.417 562.897 550.423 563.49C551.085 563.44 551.748 563.39 552.422 563.39ZM607.525 563.39C608.2 563.39 608.862 563.44 609.525 563.49C609.533 562.897 609.569 562.312 609.614 561.731C608.924 561.787 608.231 561.835 607.525 561.835C606.82 561.835 606.127 561.787 605.435 561.731C605.481 562.312 605.518 562.897 605.524 563.49C606.186 563.44 606.849 563.39 607.525 563.39Z" id="Rectangle-2-Subtract" fill="#4EBFEC" fill-rule="evenodd" stroke="none" />
  </g>
</svg>